<svg width="33" height="36" viewBox="0 0 33 36" fill="none" xmlns="http://www.w3.org/2000/svg">
<g clip-path="url(#clip0_488_622)">
<path d="M10.6971 28.0446V13.4907H6.15564V28.0446H10.6971ZM8.42698 11.5024C10.0107 11.5024 10.9965 10.3848 10.9965 8.98826C10.9669 7.56018 10.0107 6.47363 8.45703 6.47363C6.90357 6.47363 5.8877 7.5602 5.8877 8.98826C5.8877 10.3849 6.87323 11.5024 8.39733 11.5024H8.42683H8.42698ZM13.2108 28.0446H17.7523V19.917C17.7523 19.482 17.7818 19.0475 17.9018 18.7365C18.2301 17.8675 18.9773 16.9673 20.2319 16.9673C21.8753 16.9673 22.5327 18.302 22.5327 20.2585V28.0445H27.0739V19.6994C27.0739 15.229 24.8334 13.149 21.8454 13.149C19.3954 13.149 18.3197 14.6077 17.7221 15.6012H17.7524V13.4904H13.2109C13.2705 14.856 13.2109 28.0443 13.2109 28.0443L13.2108 28.0446Z" fill="#0E0F1D"/>
</g>
<defs>
<clipPath id="clip0_488_622">
<rect width="21.1829" height="21.5709" fill="white" transform="translate(5.8877 6.47363)"/>
</clipPath>
</defs>
</svg>
