<svg width="32" height="36" viewBox="0 0 32 36" fill="none" xmlns="http://www.w3.org/2000/svg">
<g clip-path="url(#clip0_488_422)">
<path d="M16.1207 12.166C13.1135 12.166 10.6879 14.7596 10.6879 17.975C10.6879 21.1904 13.1135 23.784 16.1207 23.784C19.128 23.784 21.5536 21.1904 21.5536 17.975C21.5536 14.7596 19.128 12.166 16.1207 12.166ZM16.1207 21.7516C14.1774 21.7516 12.5887 20.0579 12.5887 17.975C12.5887 15.8921 14.1727 14.1984 16.1207 14.1984C18.0688 14.1984 19.6528 15.8921 19.6528 17.975C19.6528 20.0579 18.0641 21.7516 16.1207 21.7516ZM23.043 11.9284C23.043 12.6817 22.4756 13.2833 21.7758 13.2833C21.0713 13.2833 20.5086 12.6766 20.5086 11.9284C20.5086 11.1802 21.076 10.5735 21.7758 10.5735C22.4756 10.5735 23.043 11.1802 23.043 11.9284ZM26.6413 13.3036C26.5609 11.4886 26.1732 9.88086 24.9296 8.55627C23.6908 7.23168 22.1872 6.81711 20.4897 6.72611C18.7402 6.61994 13.4965 6.61994 11.747 6.72611C10.0543 6.81206 8.55068 7.22662 7.30712 8.55121C6.06357 9.8758 5.68058 11.4835 5.59547 13.2985C5.49617 15.1691 5.49617 20.7758 5.59547 22.6464C5.67585 24.4614 6.06357 26.0691 7.30712 27.3937C8.55068 28.7183 10.0496 29.1329 11.747 29.2239C13.4965 29.3301 18.7402 29.3301 20.4897 29.2239C22.1872 29.1379 23.6908 28.7234 24.9296 27.3937C26.1684 26.0691 26.5562 24.4614 26.6413 22.6464C26.7406 20.7758 26.7406 15.1742 26.6413 13.3036ZM24.3811 24.6536C24.0123 25.6445 23.2983 26.4079 22.3669 26.8073C20.972 27.3988 17.6622 27.2623 16.1207 27.2623C14.5793 27.2623 11.2647 27.3937 9.87461 26.8073C8.94786 26.4129 8.23388 25.6495 7.86034 24.6536C7.30712 23.1621 7.43479 19.6232 7.43479 17.975C7.43479 16.3268 7.31185 12.7828 7.86034 11.2964C8.22915 10.3055 8.94313 9.54212 9.87461 9.14273C11.2695 8.55121 14.5793 8.68772 16.1207 8.68772C17.6622 8.68772 20.9767 8.55627 22.3669 9.14273C23.2936 9.53707 24.0076 10.3005 24.3811 11.2964C24.9343 12.7879 24.8067 16.3268 24.8067 17.975C24.8067 19.6232 24.9343 23.1672 24.3811 24.6536Z" fill="#0E0F1D"/>
</g>
<defs>
<clipPath id="clip0_488_422">
<rect width="21.1829" height="25.8851" fill="white" transform="translate(5.52295 5.03613)"/>
</clipPath>
</defs>
</svg>
