<svg width="33" height="36" viewBox="0 0 33 36" fill="none" xmlns="http://www.w3.org/2000/svg">
<g clip-path="url(#clip0_488_626)">
<path d="M28.4353 10.3645C27.5429 10.7736 26.5964 11.0421 25.6272 11.1611C26.6367 10.535 27.4119 9.54345 27.7769 8.36207C26.8172 8.9514 25.7672 9.36662 24.6723 9.58978C23.7804 8.60655 22.5098 7.99207 21.1035 7.99207C18.4034 7.99207 16.2142 10.2573 16.2142 13.0513C16.2142 13.4479 16.2575 13.834 16.3408 14.2043C12.2775 13.9933 8.67491 11.9791 6.26343 8.91818C5.84267 9.6654 5.60157 10.5346 5.60157 11.4617C5.60157 13.217 6.46478 14.7655 7.7766 15.6728C7.00019 15.6476 6.24086 15.4306 5.56201 15.0399C5.56173 15.0611 5.56173 15.0823 5.56173 15.1036C5.56173 17.5549 7.24701 19.5998 9.48357 20.0645C8.76361 20.2672 8.00842 20.2968 7.27568 20.1512C7.8978 22.1613 9.70345 23.6239 11.8428 23.6649C10.1695 25.0218 8.06136 25.8306 5.77081 25.8306C5.37611 25.8306 4.987 25.8066 4.60449 25.7599C6.76816 27.1954 9.33807 28.033 12.0991 28.033C21.0922 28.033 26.0098 20.3237 26.0098 13.638C26.0098 13.4186 26.0051 13.2004 25.9956 12.9835C26.9528 12.2674 27.7789 11.3806 28.4353 10.3645Z" fill="#0E0F1D"/>
</g>
<defs>
<clipPath id="clip0_488_626">
<rect width="23.8308" height="20.1329" fill="white" transform="translate(4.60449 7.91309)"/>
</clipPath>
</defs>
</svg>
