<svg width="33" height="36" viewBox="0 0 33 36" fill="none" xmlns="http://www.w3.org/2000/svg">
<g clip-path="url(#clip0_488_500)">
<path d="M10.9056 28.0446V13.4907H6.36414V28.0446H10.9056ZM8.63547 11.5024C10.2192 11.5024 11.2049 10.3848 11.2049 8.98826C11.1754 7.56018 10.2192 6.47363 8.66552 6.47363C7.11206 6.47363 6.09619 7.5602 6.09619 8.98826C6.09619 10.3849 7.08172 11.5024 8.60582 11.5024H8.63533H8.63547ZM13.4193 28.0446H17.9608V19.917C17.9608 19.482 17.9903 19.0475 18.1103 18.7365C18.4386 17.8675 19.1858 16.9673 20.4404 16.9673C22.0838 16.9673 22.7412 18.302 22.7412 20.2585V28.0445H27.2824V19.6994C27.2824 15.229 25.0419 13.149 22.0539 13.149C19.6039 13.149 18.5282 14.6077 17.9306 15.6012H17.9609V13.4904H13.4194C13.479 14.856 13.4194 28.0443 13.4194 28.0443L13.4193 28.0446Z" fill="#0E0F1D"/>
</g>
<defs>
<clipPath id="clip0_488_500">
<rect width="21.1829" height="21.5709" fill="white" transform="translate(6.09619 6.47363)"/>
</clipPath>
</defs>
</svg>
