<svg width="32" height="36" viewBox="0 0 32 36" fill="none" xmlns="http://www.w3.org/2000/svg">
<g clip-path="url(#clip0_488_618)">
<path d="M16.1202 12.166C13.113 12.166 10.6874 14.7596 10.6874 17.975C10.6874 21.1904 13.113 23.784 16.1202 23.784C19.1275 23.784 21.5531 21.1904 21.5531 17.975C21.5531 14.7596 19.1275 12.166 16.1202 12.166ZM16.1202 21.7516C14.1769 21.7516 12.5882 20.0579 12.5882 17.975C12.5882 15.8921 14.1722 14.1984 16.1202 14.1984C18.0683 14.1984 19.6523 15.8921 19.6523 17.975C19.6523 20.0579 18.0636 21.7516 16.1202 21.7516ZM23.0425 11.9284C23.0425 12.6817 22.4751 13.2833 21.7753 13.2833C21.0708 13.2833 20.5081 12.6766 20.5081 11.9284C20.5081 11.1802 21.0755 10.5735 21.7753 10.5735C22.4751 10.5735 23.0425 11.1802 23.0425 11.9284ZM26.6408 13.3036C26.5604 11.4886 26.1727 9.88086 24.9291 8.55627C23.6903 7.23168 22.1867 6.81711 20.4892 6.72611C18.7397 6.61994 13.496 6.61994 11.7465 6.72611C10.0538 6.81206 8.55019 7.22662 7.30664 8.55121C6.06308 9.8758 5.68009 11.4835 5.59498 13.2985C5.49568 15.1691 5.49568 20.7758 5.59498 22.6464C5.67536 24.4614 6.06308 26.0691 7.30664 27.3937C8.55019 28.7183 10.0491 29.1329 11.7465 29.2239C13.496 29.3301 18.7397 29.3301 20.4892 29.2239C22.1867 29.1379 23.6903 28.7234 24.9291 27.3937C26.168 26.0691 26.5557 24.4614 26.6408 22.6464C26.7401 20.7758 26.7401 15.1742 26.6408 13.3036ZM24.3806 24.6536C24.0118 25.6445 23.2979 26.4079 22.3664 26.8073C20.9715 27.3988 17.6617 27.2623 16.1202 27.2623C14.5788 27.2623 11.2643 27.3937 9.87412 26.8073C8.94737 26.4129 8.23339 25.6495 7.85985 24.6536C7.30664 23.1621 7.4343 19.6232 7.4343 17.975C7.4343 16.3268 7.31136 12.7828 7.85985 11.2964C8.22866 10.3055 8.94264 9.54212 9.87412 9.14273C11.269 8.55121 14.5788 8.68772 16.1202 8.68772C17.6617 8.68772 20.9762 8.55627 22.3664 9.14273C23.2931 9.53707 24.0071 10.3005 24.3806 11.2964C24.9339 12.7879 24.8062 16.3268 24.8062 17.975C24.8062 19.6232 24.9339 23.1672 24.3806 24.6536Z" fill="#0E0F1D"/>
</g>
<defs>
<clipPath id="clip0_488_618">
<rect width="21.1829" height="25.8851" fill="white" transform="translate(5.52246 5.03613)"/>
</clipPath>
</defs>
</svg>
