<svg width="33" height="36" viewBox="0 0 33 36" fill="none" xmlns="http://www.w3.org/2000/svg">
<g clip-path="url(#clip0_488_504)">
<path d="M28.6438 10.3643C27.7514 10.7734 26.8049 11.042 25.8357 11.161C26.8452 10.5348 27.6204 9.54333 27.9854 8.36194C27.0257 8.95127 25.9757 9.36649 24.8808 9.58966C23.9889 8.60643 22.7183 7.99194 21.312 7.99194C18.6119 7.99194 16.4227 10.2572 16.4227 13.0512C16.4227 13.4478 16.466 13.8338 16.5493 14.2042C12.486 13.9932 8.8834 11.979 6.47193 8.91805C6.05117 9.66528 5.81007 10.5345 5.81007 11.4615C5.81007 13.2168 6.67328 14.7653 7.98509 15.6727C7.20868 15.6475 6.44935 15.4305 5.7705 15.0398C5.77022 15.061 5.77022 15.0822 5.77022 15.1035C5.77022 17.5548 7.45551 19.5996 9.69207 20.0644C8.9721 20.267 8.21691 20.2967 7.48418 20.1511C8.10629 22.1611 9.91194 23.6238 12.0513 23.6647C10.378 25.0216 8.26985 25.8305 5.9793 25.8305C5.5846 25.8305 5.19549 25.8065 4.81299 25.7598C6.97666 27.1953 9.54657 28.0329 12.3076 28.0329C21.3007 28.0329 26.2183 20.3235 26.2183 13.6379C26.2183 13.4185 26.2136 13.2003 26.2041 12.9833C27.1613 12.2673 27.9874 11.3804 28.6438 10.3643Z" fill="#0E0F1D"/>
</g>
<defs>
<clipPath id="clip0_488_504">
<rect width="23.8308" height="20.1329" fill="white" transform="translate(4.81299 7.91309)"/>
</clipPath>
</defs>
</svg>
