<svg width="33" height="36" viewBox="0 0 33 36" fill="none" xmlns="http://www.w3.org/2000/svg">
<g clip-path="url(#clip0_488_496)">
<path d="M16.3292 12.166C13.322 12.166 10.8964 14.7596 10.8964 17.975C10.8964 21.1904 13.322 23.784 16.3292 23.784C19.3365 23.784 21.7621 21.1904 21.7621 17.975C21.7621 14.7596 19.3365 12.166 16.3292 12.166ZM16.3292 21.7516C14.3859 21.7516 12.7972 20.0579 12.7972 17.975C12.7972 15.8921 14.3812 14.1984 16.3292 14.1984C18.2773 14.1984 19.8613 15.8921 19.8613 17.975C19.8613 20.0579 18.2726 21.7516 16.3292 21.7516ZM23.2515 11.9284C23.2515 12.6817 22.6841 13.2833 21.9843 13.2833C21.2798 13.2833 20.7171 12.6766 20.7171 11.9284C20.7171 11.1802 21.2845 10.5735 21.9843 10.5735C22.6841 10.5735 23.2515 11.1802 23.2515 11.9284ZM26.8498 13.3036C26.7694 11.4886 26.3817 9.88086 25.1381 8.55627C23.8993 7.23168 22.3957 6.81711 20.6982 6.72611C18.9487 6.61994 13.705 6.61994 11.9555 6.72611C10.2628 6.81206 8.75917 7.22662 7.51562 8.55121C6.27207 9.8758 5.88907 11.4835 5.80396 13.2985C5.70467 15.1691 5.70467 20.7758 5.80396 22.6464C5.88435 24.4614 6.27207 26.0691 7.51562 27.3937C8.75917 28.7183 10.2581 29.1329 11.9555 29.2239C13.705 29.3301 18.9487 29.3301 20.6982 29.2239C22.3957 29.1379 23.8993 28.7234 25.1381 27.3937C26.3769 26.0691 26.7647 24.4614 26.8498 22.6464C26.9491 20.7758 26.9491 15.1742 26.8498 13.3036ZM24.5896 24.6536C24.2208 25.6445 23.5068 26.4079 22.5754 26.8073C21.1805 27.3988 17.8707 27.2623 16.3292 27.2623C14.7878 27.2623 11.4732 27.3937 10.0831 26.8073C9.15635 26.4129 8.44237 25.6495 8.06884 24.6536C7.51562 23.1621 7.64329 19.6232 7.64329 17.975C7.64329 16.3268 7.52035 12.7828 8.06884 11.2964C8.43764 10.3055 9.15162 9.54212 10.0831 9.14273C11.478 8.55121 14.7878 8.68772 16.3292 8.68772C17.8707 8.68772 21.1852 8.55627 22.5754 9.14273C23.5021 9.53707 24.2161 10.3005 24.5896 11.2964C25.1428 12.7879 25.0152 16.3268 25.0152 17.975C25.0152 19.6232 25.1428 23.1672 24.5896 24.6536Z" fill="#0E0F1D"/>
</g>
<defs>
<clipPath id="clip0_488_496">
<rect width="21.1829" height="25.8851" fill="white" transform="translate(5.73145 5.03613)"/>
</clipPath>
</defs>
</svg>
