<svg width="33" height="36" viewBox="0 0 33 36" fill="none" xmlns="http://www.w3.org/2000/svg">
<g clip-path="url(#clip0_488_430)">
<path d="M28.4353 10.3646C27.5429 10.7737 26.5964 11.0422 25.6272 11.1612C26.6367 10.5351 27.4119 9.54357 27.7769 8.36219C26.8172 8.95152 25.7672 9.36674 24.6723 9.58991C23.7804 8.60667 22.5098 7.99219 21.1035 7.99219C18.4034 7.99219 16.2142 10.2575 16.2142 13.0514C16.2142 13.448 16.2575 13.8341 16.3408 14.2045C12.2775 13.9934 8.67491 11.9793 6.26343 8.9183C5.84267 9.66553 5.60157 10.5347 5.60157 11.4618C5.60157 13.2171 6.46478 14.7656 7.7766 15.6729C7.00019 15.6478 6.24086 15.4308 5.56201 15.04C5.56173 15.0612 5.56173 15.0824 5.56173 15.1037C5.56173 17.555 7.24701 19.5999 9.48357 20.0647C8.76361 20.2673 8.00842 20.2969 7.27568 20.1514C7.8978 22.1614 9.70345 23.624 11.8428 23.665C10.1695 25.0219 8.06136 25.8308 5.77081 25.8308C5.37611 25.8308 4.987 25.8068 4.60449 25.76C6.76816 27.1955 9.33807 28.0331 12.0991 28.0331C21.0922 28.0331 26.0098 20.3238 26.0098 13.6381C26.0098 13.4187 26.0051 13.2005 25.9956 12.9836C26.9528 12.2676 27.7789 11.3807 28.4353 10.3646Z" fill="#0E0F1D"/>
</g>
<defs>
<clipPath id="clip0_488_430">
<rect width="23.8308" height="20.1329" fill="white" transform="translate(4.60449 7.91309)"/>
</clipPath>
</defs>
</svg>
