<svg width="33" height="36" viewBox="0 0 33 36" fill="none" xmlns="http://www.w3.org/2000/svg">
<g clip-path="url(#clip0_488_561)">
<path d="M11.1024 28.0446V13.4907H6.56091V28.0446H11.1024ZM8.83225 11.5024C10.4159 11.5024 11.4017 10.3848 11.4017 8.98826C11.3722 7.56018 10.416 6.47363 8.8623 6.47363C7.30884 6.47363 6.29297 7.5602 6.29297 8.98826C6.29297 10.3849 7.2785 11.5024 8.8026 11.5024H8.83211H8.83225ZM13.6161 28.0446H18.1576V19.917C18.1576 19.482 18.1871 19.0475 18.307 18.7365C18.6354 17.8675 19.3826 16.9673 20.6372 16.9673C22.2805 16.9673 22.938 18.302 22.938 20.2585V28.0445H27.4792V19.6994C27.4792 15.229 25.2387 13.149 22.2506 13.149C19.8007 13.149 18.725 14.6077 18.1274 15.6012H18.1577V13.4904H13.6162C13.6758 14.856 13.6162 28.0443 13.6162 28.0443L13.6161 28.0446Z" fill="#0E0F1D"/>
</g>
<defs>
<clipPath id="clip0_488_561">
<rect width="21.1829" height="21.5709" fill="white" transform="translate(6.29297 6.47363)"/>
</clipPath>
</defs>
</svg>
