<svg width="33" height="36" viewBox="0 0 33 36" fill="none" xmlns="http://www.w3.org/2000/svg">
<g clip-path="url(#clip0_488_687)">
<path d="M28.4353 10.3643C27.5429 10.7734 26.5964 11.042 25.6272 11.161C26.6367 10.5348 27.4119 9.54333 27.7769 8.36194C26.8172 8.95127 25.7672 9.36649 24.6723 9.58966C23.7804 8.60643 22.5098 7.99194 21.1035 7.99194C18.4034 7.99194 16.2142 10.2572 16.2142 13.0512C16.2142 13.4478 16.2575 13.8338 16.3408 14.2042C12.2775 13.9932 8.67491 11.979 6.26343 8.91805C5.84267 9.66528 5.60157 10.5345 5.60157 11.4615C5.60157 13.2168 6.46478 14.7653 7.7766 15.6727C7.00019 15.6475 6.24086 15.4305 5.56201 15.0398C5.56173 15.061 5.56173 15.0822 5.56173 15.1035C5.56173 17.5548 7.24701 19.5996 9.48357 20.0644C8.76361 20.267 8.00842 20.2967 7.27568 20.1511C7.8978 22.1611 9.70345 23.6238 11.8428 23.6647C10.1695 25.0216 8.06136 25.8305 5.77081 25.8305C5.37611 25.8305 4.987 25.8065 4.60449 25.7598C6.76816 27.1953 9.33807 28.0329 12.0991 28.0329C21.0922 28.0329 26.0098 20.3235 26.0098 13.6379C26.0098 13.4185 26.0051 13.2003 25.9956 12.9833C26.9528 12.2673 27.7789 11.3804 28.4353 10.3643Z" fill="#0E0F1D"/>
</g>
<defs>
<clipPath id="clip0_488_687">
<rect width="23.8308" height="20.1329" fill="white" transform="translate(4.60449 7.91309)"/>
</clipPath>
</defs>
</svg>
