<svg width="33" height="36" viewBox="0 0 33 36" fill="none" xmlns="http://www.w3.org/2000/svg">
<g clip-path="url(#clip0_488_557)">
<path d="M16.5255 12.166C13.5183 12.166 11.0927 14.7596 11.0927 17.975C11.0927 21.1904 13.5183 23.784 16.5255 23.784C19.5327 23.784 21.9584 21.1904 21.9584 17.975C21.9584 14.7596 19.5327 12.166 16.5255 12.166ZM16.5255 21.7516C14.5822 21.7516 12.9935 20.0579 12.9935 17.975C12.9935 15.8921 14.5774 14.1984 16.5255 14.1984C18.4736 14.1984 20.0576 15.8921 20.0576 17.975C20.0576 20.0579 18.4689 21.7516 16.5255 21.7516ZM23.4478 11.9284C23.4478 12.6817 22.8804 13.2833 22.1806 13.2833C21.4761 13.2833 20.9134 12.6766 20.9134 11.9284C20.9134 11.1802 21.4808 10.5735 22.1806 10.5735C22.8804 10.5735 23.4478 11.1802 23.4478 11.9284ZM27.0461 13.3036C26.9657 11.4886 26.578 9.88086 25.3344 8.55627C24.0956 7.23168 22.592 6.81711 20.8945 6.72611C19.145 6.61994 13.9013 6.61994 12.1518 6.72611C10.4591 6.81206 8.95546 7.22662 7.71191 8.55121C6.46836 9.8758 6.08536 11.4835 6.00025 13.2985C5.90096 15.1691 5.90096 20.7758 6.00025 22.6464C6.08063 24.4614 6.46836 26.0691 7.71191 27.3937C8.95546 28.7183 10.4543 29.1329 12.1518 29.2239C13.9013 29.3301 19.145 29.3301 20.8945 29.2239C22.592 29.1379 24.0956 28.7234 25.3344 27.3937C26.5732 26.0691 26.961 24.4614 27.0461 22.6464C27.1454 20.7758 27.1454 15.1742 27.0461 13.3036ZM24.7859 24.6536C24.4171 25.6445 23.7031 26.4079 22.7717 26.8073C21.3768 27.3988 18.067 27.2623 16.5255 27.2623C14.9841 27.2623 11.6695 27.3937 10.2794 26.8073C9.35264 26.4129 8.63866 25.6495 8.26512 24.6536C7.71191 23.1621 7.83957 19.6232 7.83957 17.975C7.83957 16.3268 7.71664 12.7828 8.26512 11.2964C8.63393 10.3055 9.34791 9.54212 10.2794 9.14273C11.6743 8.55121 14.9841 8.68772 16.5255 8.68772C18.067 8.68772 21.3815 8.55627 22.7717 9.14273C23.6984 9.53707 24.4124 10.3005 24.7859 11.2964C25.3391 12.7879 25.2115 16.3268 25.2115 17.975C25.2115 19.6232 25.3391 23.1672 24.7859 24.6536Z" fill="#0E0F1D"/>
</g>
<defs>
<clipPath id="clip0_488_557">
<rect width="21.1829" height="25.8851" fill="white" transform="translate(5.92773 5.03613)"/>
</clipPath>
</defs>
</svg>
