<svg width="33" height="36" viewBox="0 0 33 36" fill="none" xmlns="http://www.w3.org/2000/svg">
<g clip-path="url(#clip0_488_426)">
<path d="M10.6975 28.0446V13.4907H6.15601V28.0446H10.6975ZM8.42734 11.5024C10.011 11.5024 10.9968 10.3848 10.9968 8.98826C10.9673 7.56018 10.0111 6.47363 8.45739 6.47363C6.90393 6.47363 5.88806 7.5602 5.88806 8.98826C5.88806 10.3849 6.87359 11.5024 8.39769 11.5024H8.4272H8.42734ZM13.2112 28.0446H17.7527V19.917C17.7527 19.482 17.7822 19.0475 17.9021 18.7365C18.2304 17.8675 18.9777 16.9673 20.2323 16.9673C21.8756 16.9673 22.5331 18.302 22.5331 20.2585V28.0445H27.0743V19.6994C27.0743 15.229 24.8338 13.149 21.8457 13.149C19.3958 13.149 18.3201 14.6077 17.7225 15.6012H17.7528V13.4904H13.2113C13.2709 14.856 13.2113 28.0443 13.2113 28.0443L13.2112 28.0446Z" fill="#0E0F1D"/>
</g>
<defs>
<clipPath id="clip0_488_426">
<rect width="21.1829" height="21.5709" fill="white" transform="translate(5.88806 6.47363)"/>
</clipPath>
</defs>
</svg>
