<svg width="32" height="36" viewBox="0 0 32 36" fill="none" xmlns="http://www.w3.org/2000/svg">
<g clip-path="url(#clip0_488_565)">
<path d="M27.8406 10.3643C26.9482 10.7734 26.0017 11.042 25.0324 11.161C26.042 10.5348 26.8172 9.54333 27.1822 8.36194C26.2225 8.95127 25.1725 9.36649 24.0775 9.58966C23.1857 8.60643 21.9151 7.99194 20.5088 7.99194C17.8086 7.99194 15.6195 10.2572 15.6195 13.0512C15.6195 13.4478 15.6628 13.8338 15.7461 14.2042C11.6827 13.9932 8.08018 11.979 5.66871 8.91805C5.24794 9.66528 5.00684 10.5345 5.00684 11.4615C5.00684 13.2168 5.87006 14.7653 7.18187 15.6727C6.40546 15.6475 5.64613 15.4305 4.96728 15.0398C4.967 15.061 4.967 15.0822 4.967 15.1035C4.967 17.5548 6.65229 19.5996 8.88884 20.0644C8.16888 20.267 7.41369 20.2967 6.68096 20.1511C7.30307 22.1611 9.10872 23.6238 11.2481 23.6647C9.57482 25.0216 7.46663 25.8305 5.17608 25.8305C4.78138 25.8305 4.39227 25.8065 4.00977 25.7598C6.17344 27.1953 8.74335 28.0329 11.5044 28.0329C20.4974 28.0329 25.415 20.3235 25.415 13.6379C25.415 13.4185 25.4104 13.2003 25.4009 12.9833C26.3581 12.2673 27.1842 11.3804 27.8406 10.3643Z" fill="#0E0F1D"/>
</g>
<defs>
<clipPath id="clip0_488_565">
<rect width="23.8308" height="20.1329" fill="white" transform="translate(4.00977 7.91309)"/>
</clipPath>
</defs>
</svg>
