<svg width="29" height="38" viewBox="0 0 29 38" fill="none" xmlns="http://www.w3.org/2000/svg">
<path d="M7.55656 4.7389C8.3436 4.28258 9.34064 4.53191 9.78351 5.29577L11.3867 8.06086C10.9447 7.29715 11.2238 6.30874 12.0105 5.85265C12.7975 5.39634 13.7946 5.64567 14.2374 6.40953L18.2454 13.3226C17.8046 12.559 18.0839 11.5715 18.8701 11.1157C19.6571 10.6594 20.6542 10.9087 21.097 11.6726L26.8439 21.5848C28.0249 23.6218 27.2809 26.2595 25.1821 27.4764L18.5318 31.3321C16.433 32.5489 13.7742 31.884 12.5932 29.8471L4.00631 15.0363C3.56344 14.2725 3.84244 13.2833 4.62948 12.827C5.41599 12.371 6.4122 12.6197 6.85553 13.3823L5.15243 10.4448C4.70955 9.68094 4.98856 8.69179 5.7756 8.23548C6.554 7.78418 7.5378 8.0231 7.98776 8.76736L7.98751 8.76639L6.93338 6.94822C6.49051 6.18435 6.76951 5.19521 7.55656 4.7389Z" fill="#2B4593"/>
<path d="M15.0304 21.3432C14.7136 21.0214 14.5363 20.5815 14.5401 20.1184C14.5439 19.6549 14.729 19.2062 15.0571 18.8728C15.3853 18.5394 15.827 18.3514 16.2833 18.3476C16.7391 18.3437 17.1722 18.5239 17.4889 18.8457C17.8057 19.1675 17.983 19.6074 17.9793 20.0705C17.9755 20.534 17.7904 20.9827 17.4622 21.3161C17.1341 21.6495 16.6924 21.8375 16.2361 21.8413C15.7802 21.8452 15.3472 21.665 15.0304 21.3432Z" fill="#2B4593" stroke="white" stroke-width="1.15208"/>
<path d="M16.3296 19.3349C16.0128 19.0131 15.8355 18.5732 15.8393 18.1101C15.8431 17.6466 16.0282 17.1979 16.3563 16.8645C16.6845 16.5311 17.1262 16.3431 17.5825 16.3393C18.0383 16.3354 18.4714 16.5156 18.7881 16.8374C19.1049 17.1592 19.2822 17.5991 19.2785 18.0622C19.2747 18.5257 19.0896 18.9744 18.7614 19.3078C18.4333 19.6412 17.9916 19.8292 17.5353 19.833C17.0794 19.8369 16.6464 19.6567 16.3296 19.3349Z" fill="#2B4593" stroke="white" stroke-width="1.15208"/>
<path d="M17.6286 17.3266C17.3118 17.0048 17.1345 16.5649 17.1382 16.1018C17.142 15.6383 17.3271 15.1896 17.6553 14.8562C17.9834 14.5228 18.4251 14.3348 18.8814 14.331C19.3373 14.3271 19.7703 14.5073 20.0871 14.8291C20.4039 15.1509 20.5812 15.5908 20.5774 16.0539C20.5736 16.5174 20.3885 16.9661 20.0604 17.2995C19.7322 17.6329 19.2905 17.8209 18.8342 17.8247C18.3784 17.8286 17.9453 17.6484 17.6286 17.3266Z" fill="#2B4593" stroke="white" stroke-width="1.15208"/>
<path d="M18.9274 15.3188C18.6106 14.997 18.4333 14.5571 18.4371 14.094C18.4408 13.6304 18.6259 13.1817 18.9541 12.8484C19.2822 12.515 19.7239 12.327 20.1802 12.3231C20.6361 12.3193 21.0692 12.4994 21.3859 12.8212C21.7027 13.143 21.88 13.583 21.8762 14.0461C21.8725 14.5096 21.6874 14.9583 21.3592 15.2917C21.0311 15.6251 20.5894 15.8131 20.1331 15.8169C19.6772 15.8207 19.2442 15.6406 18.9274 15.3188Z" fill="#2B4593" stroke="white" stroke-width="1.15208"/>
<path d="M13.7147 23.3525C13.398 23.0307 13.2207 22.5908 13.2244 22.1277C13.2282 21.6641 13.4133 21.2154 13.7414 20.8821C14.0696 20.5487 14.5113 20.3607 14.9676 20.3568C15.4235 20.353 15.8565 20.5331 16.1733 20.8549C16.49 21.1767 16.6673 21.6167 16.6636 22.0798C16.6598 22.5433 16.4747 22.992 16.1466 23.3254C15.8184 23.6588 15.3767 23.8468 14.9204 23.8506C14.4645 23.8544 14.0315 23.6743 13.7147 23.3525Z" fill="#2B4593" stroke="white" stroke-width="1.15208"/>
<path d="M12.4629 25.4248C12.1461 25.103 11.9688 24.6631 11.9726 24.2C11.9764 23.7364 12.1615 23.2877 12.4896 22.9543C12.8178 22.621 13.2595 22.4329 13.7158 22.4291C14.1716 22.4253 14.6047 22.6054 14.9214 22.9272C15.2382 23.249 15.4155 23.6889 15.4118 24.152C15.408 24.6156 15.2229 25.0643 14.8947 25.3977C14.5666 25.731 14.1249 25.9191 13.6686 25.9229C13.2127 25.9267 12.7797 25.7466 12.4629 25.4248Z" fill="#2B4593" stroke="white" stroke-width="1.15208"/>
<path d="M10.3987 24.0649C10.0819 23.7431 9.90463 23.3032 9.90839 22.8401C9.91215 22.3765 10.0973 21.9278 10.4254 21.5945C10.7536 21.2611 11.1952 21.0731 11.6516 21.0692C12.1074 21.0654 12.5405 21.2455 12.8572 21.5673C13.174 21.8891 13.3513 22.3291 13.3475 22.7922C13.3438 23.2557 13.1587 23.7044 12.8305 24.0378C12.5024 24.3712 12.0607 24.5592 11.6044 24.563C11.1485 24.5668 10.7155 24.3867 10.3987 24.0649Z" fill="#2B4593" stroke="white" stroke-width="1.15208"/>
<path d="M8.39809 22.768C8.08132 22.4462 7.90402 22.0063 7.90778 21.5432C7.91154 21.0797 8.09665 20.631 8.4248 20.2976C8.75295 19.9642 9.19463 19.7762 9.65095 19.7724C10.1068 19.7685 10.5399 19.9487 10.8566 20.2705C11.1734 20.5923 11.3507 21.0322 11.3469 21.4953C11.3432 21.9589 11.1581 22.4076 10.8299 22.7409C10.5018 23.0743 10.0601 23.2623 9.60376 23.2661C9.14789 23.27 8.71486 23.0898 8.39809 22.768Z" fill="#2B4593" stroke="white" stroke-width="1.15208"/>
<path d="M6.3976 21.4731C6.08083 21.1513 5.90353 20.7114 5.90729 20.2483C5.91105 19.7847 6.09616 19.336 6.42431 19.0027C6.75246 18.6693 7.19415 18.4813 7.65046 18.4774C8.10633 18.4736 8.53937 18.6537 8.85613 18.9755C9.1729 19.2973 9.35021 19.7373 9.34645 20.2004C9.34269 20.6639 9.15758 21.1126 8.82943 21.446C8.50128 21.7794 8.05959 21.9674 7.60328 21.9712C7.14741 21.975 6.71437 21.7949 6.3976 21.4731Z" fill="#2B4593" stroke="white" stroke-width="1.15208"/>
<rect x="-0.478572" y="0.481844" width="6.56922" height="0.96037" transform="matrix(0.0033531 0.999994 -0.999994 0.00346046 13.399 26.072)" fill="#2B4593" stroke="white" stroke-width="0.96037"/>
<rect x="10.1966" y="27.5146" width="4.41747" height="0.939381" fill="#2B4593" stroke="white" stroke-width="0.939381"/>
</svg>
