<svg width="30" height="35" viewBox="0 0 30 35" fill="none" xmlns="http://www.w3.org/2000/svg">
<path d="M7.5415 5.14272C8.33882 4.68046 9.34887 4.93304 9.79752 5.70687L11.4216 8.50804C10.9739 7.73436 11.2566 6.73305 12.0535 6.27101C12.8509 5.80875 13.8609 6.06133 14.3096 6.83516L18.3699 13.8384C17.9233 13.0649 18.2062 12.0645 19.0026 11.6028C19.8 11.1405 20.81 11.3931 21.2587 12.1669L27.0805 22.2085C28.2769 24.272 27.5232 26.9442 25.397 28.1769L18.6599 32.0829C16.5338 33.3156 13.8403 32.6421 12.6439 30.5785L3.94493 15.5745C3.49628 14.8007 3.77893 13.7986 4.57624 13.3364C5.373 12.8744 6.38222 13.1263 6.83133 13.8989L5.106 10.9231C4.65735 10.1493 4.94 9.1472 5.73731 8.68493C6.52586 8.22775 7.52251 8.46978 7.97834 9.22376L7.97808 9.22277L6.91019 7.38088C6.46154 6.60705 6.74419 5.60499 7.5415 5.14272Z" fill="#2B4593"/>
<path d="M14.4773 20.9975C14.3281 20.8459 14.2438 20.638 14.2456 20.4177C14.2474 20.1969 14.3357 19.9818 14.4935 19.8215C14.6512 19.6613 14.8629 19.5716 15.0803 19.5697C15.2972 19.5679 15.5018 19.6535 15.651 19.8051C15.8002 19.9567 15.8845 20.1645 15.8827 20.3849C15.8809 20.6057 15.7926 20.8208 15.6348 20.981C15.4771 21.1413 15.2653 21.231 15.048 21.2328C14.8311 21.2346 14.6265 21.149 14.4773 20.9975Z" fill="#2B4593" stroke="white" stroke-width="1.14893"/>
<path d="M15.7717 18.9945C15.6225 18.8429 15.5382 18.635 15.54 18.4147C15.5418 18.1939 15.6301 17.9788 15.7879 17.8185C15.9457 17.6583 16.1574 17.5686 16.3747 17.5668C16.5916 17.5649 16.7963 17.6505 16.9454 17.8021C17.0946 17.9537 17.1789 18.1616 17.1771 18.3819C17.1753 18.6027 17.087 18.8178 16.9293 18.978C16.7715 19.1383 16.5598 19.228 16.3424 19.2298C16.1255 19.2316 15.9209 19.146 15.7717 18.9945Z" fill="#2B4593" stroke="white" stroke-width="1.14893"/>
<path d="M17.0691 16.9919C16.9199 16.8403 16.8356 16.6324 16.8374 16.4121C16.8392 16.1913 16.9275 15.9762 17.0852 15.8159C17.243 15.6557 17.4547 15.566 17.6721 15.5642C17.889 15.5623 18.0936 15.6479 18.2428 15.7995C18.392 15.9511 18.4763 16.159 18.4745 16.3793C18.4727 16.6001 18.3844 16.8152 18.2266 16.9755C18.0689 17.1357 17.8571 17.2254 17.6398 17.2272C17.4229 17.2291 17.2183 17.1435 17.0691 16.9919Z" fill="#2B4593" stroke="white" stroke-width="1.14893"/>
<path d="M18.3625 14.989C18.2133 14.8375 18.1291 14.6296 18.1309 14.4092C18.1326 14.1884 18.2209 13.9734 18.3787 13.8131C18.5365 13.6528 18.7482 13.5631 18.9655 13.5613C19.1824 13.5595 19.3871 13.6451 19.5363 13.7966C19.6855 13.9482 19.7697 14.1561 19.7679 14.3764C19.7661 14.5972 19.6779 14.8123 19.5201 14.9726C19.3623 15.1329 19.1506 15.2225 18.9333 15.2244C18.7164 15.2262 18.5117 15.1406 18.3625 14.989Z" fill="#2B4593" stroke="white" stroke-width="1.14893"/>
<path d="M13.1653 23.0007C13.0161 22.8491 12.9318 22.6412 12.9336 22.4209C12.9354 22.2001 13.0237 21.985 13.1814 21.8247C13.3392 21.6644 13.5509 21.5747 13.7683 21.5729C13.9852 21.5711 14.1898 21.6567 14.339 21.8083C14.4882 21.9598 14.5725 22.1677 14.5707 22.3881C14.5689 22.6089 14.4806 22.8239 14.3228 22.9842C14.165 23.1445 13.9533 23.2342 13.736 23.236C13.5191 23.2378 13.3144 23.1522 13.1653 23.0007Z" fill="#2B4593" stroke="white" stroke-width="1.14893"/>
<path d="M11.9187 25.0679C11.7695 24.9163 11.6852 24.7084 11.687 24.4881C11.6888 24.2673 11.7771 24.0522 11.9349 23.8919C12.0926 23.7316 12.3043 23.6419 12.5217 23.6401C12.7386 23.6383 12.9432 23.7239 13.0924 23.8755C13.2416 24.027 13.3259 24.2349 13.3241 24.4553C13.3223 24.6761 13.234 24.8911 13.0762 25.0514C12.9185 25.2117 12.7068 25.3014 12.4894 25.3032C12.2725 25.305 12.0679 25.2194 11.9187 25.0679Z" fill="#2B4593" stroke="white" stroke-width="1.14893"/>
<path d="M9.85617 23.7112C9.70698 23.5596 9.62272 23.3517 9.62451 23.1314C9.6263 22.9106 9.71458 22.6955 9.87236 22.5352C10.0301 22.375 10.2418 22.2853 10.4592 22.2835C10.6761 22.2816 10.8807 22.3672 11.0299 22.5188C11.1791 22.6704 11.2634 22.8783 11.2616 23.0986C11.2598 23.3194 11.1715 23.5345 11.0137 23.6948C10.856 23.855 10.6443 23.9447 10.4269 23.9465C10.21 23.9484 10.0054 23.8628 9.85617 23.7112Z" fill="#2B4593" stroke="white" stroke-width="1.14893"/>
<path d="M7.86545 22.4189C7.71626 22.2673 7.632 22.0594 7.63378 21.8391C7.63558 21.6183 7.72386 21.4032 7.88163 21.2429C8.03941 21.0826 8.25112 20.993 8.46846 20.9911C8.68536 20.9893 8.89 21.0749 9.0392 21.2265C9.18839 21.378 9.27265 21.5859 9.27086 21.8063C9.26907 22.0271 9.18078 22.2421 9.02301 22.4024C8.86524 22.5627 8.65353 22.6524 8.43618 22.6542C8.21928 22.656 8.01464 22.5704 7.86545 22.4189Z" fill="#2B4593" stroke="white" stroke-width="1.14893"/>
<path d="M5.86887 21.1268C5.71968 20.9752 5.63541 20.7674 5.6372 20.547C5.63899 20.3262 5.72728 20.1111 5.88505 19.9509C6.04282 19.7906 6.25454 19.7009 6.47188 19.6991C6.68878 19.6973 6.89342 19.7829 7.04261 19.9344C7.19181 20.086 7.27607 20.2939 7.27428 20.5142C7.27249 20.735 7.1842 20.9501 7.02643 21.1104C6.86866 21.2706 6.65695 21.3603 6.4396 21.3622C6.2227 21.364 6.01806 21.2784 5.86887 21.1268Z" fill="#2B4593" stroke="white" stroke-width="1.14893"/>
<rect x="-0.477263" y="0.480526" width="6.55125" height="0.957742" transform="matrix(0.0033531 0.999994 -0.999994 0.00346046 13.4809 26.3516)" fill="#2B4593" stroke="white" stroke-width="0.957742"/>
<rect x="10.2863" y="27.7908" width="4.40539" height="0.936811" fill="#2B4593" stroke="white" stroke-width="0.936811"/>
</svg>
