<svg width="47" height="55" viewBox="0 0 47 55" fill="none" xmlns="http://www.w3.org/2000/svg">
<path d="M11.6679 7.06081C12.9567 6.31359 14.5894 6.72186 15.3146 7.97271L17.9398 12.5006C17.2161 11.25 17.6731 9.63147 18.9613 8.88461C20.2501 8.1374 21.8828 8.54567 22.608 9.79652L29.1712 21.1168C28.4494 19.8665 28.9067 18.2494 30.1941 17.503C31.4829 16.7558 33.1156 17.1641 33.8408 18.4149L43.2515 34.6465C45.1854 37.9821 43.967 42.3014 40.5302 44.294L29.6401 50.6078C26.2033 52.6004 21.8495 51.5117 19.9156 48.1761L5.85428 23.9231C5.12907 22.6723 5.58595 21.0525 6.87475 20.3053C8.16267 19.5586 9.794 19.9658 10.52 21.2146L7.73108 16.4044C7.00587 15.1535 7.46275 13.5338 8.75155 12.7866C10.0262 12.0475 11.6372 12.4388 12.374 13.6575L12.3736 13.6559L10.6474 10.6786C9.92222 9.42779 10.3791 7.80803 11.6679 7.06081Z" fill="#2B4593"/>
<path d="M22.8717 33.3634C22.6255 33.1133 22.4865 32.7703 22.4894 32.4067C22.4924 32.0423 22.638 31.6874 22.8984 31.423C23.1587 31.1585 23.5081 31.0105 23.8667 31.0075C24.2246 31.0045 24.5623 31.1457 24.8085 31.3958C25.0546 31.6459 25.1937 31.989 25.1907 32.3526C25.1878 32.7169 25.0421 33.0718 24.7817 33.3362C24.5214 33.6007 24.1721 33.7487 23.8134 33.7517C23.4555 33.7547 23.1179 33.6135 22.8717 33.3634Z" fill="#2B4593" stroke="white" stroke-width="1.89583"/>
<path d="M25.0092 30.0582C24.7631 29.8081 24.624 29.4651 24.627 29.1015C24.6299 28.7372 24.7756 28.3823 25.036 28.1178C25.2963 27.8533 25.6456 27.7053 26.0043 27.7023C26.3622 27.6993 26.6998 27.8406 26.946 28.0907C27.1922 28.3408 27.3312 28.6838 27.3283 29.0474C27.3253 29.4117 27.1797 29.7666 26.9193 30.0311C26.659 30.2955 26.3096 30.4435 25.951 30.4465C25.5931 30.4495 25.2554 30.3083 25.0092 30.0582Z" fill="#2B4593" stroke="white" stroke-width="1.89583"/>
<path d="M27.1469 26.754C26.9007 26.5039 26.7617 26.1609 26.7646 25.7973C26.7676 25.433 26.9132 25.0781 27.1736 24.8136C27.4339 24.5491 27.7833 24.4011 28.1419 24.3981C28.4998 24.3951 28.8375 24.5364 29.0837 24.7865C29.3298 25.0366 29.4689 25.3796 29.4659 25.7432C29.463 26.1075 29.3173 26.4624 29.057 26.7269C28.7966 26.9913 28.4473 27.1393 28.0886 27.1423C27.7307 27.1453 27.3931 27.0041 27.1469 26.754Z" fill="#2B4593" stroke="white" stroke-width="1.89583"/>
<path d="M29.2845 23.4488C29.0383 23.1987 28.8993 22.8557 28.9022 22.4921C28.9052 22.1278 29.0509 21.7729 29.3112 21.5084C29.5716 21.2439 29.9209 21.096 30.2795 21.0929C30.6374 21.09 30.9751 21.2312 31.2213 21.4813C31.4675 21.7314 31.6065 22.0744 31.6036 22.438C31.6006 22.8023 31.4549 23.1572 31.1946 23.4217C30.9343 23.6862 30.5849 23.8342 30.2263 23.8372C29.8684 23.8402 29.5307 23.6989 29.2845 23.4488Z" fill="#2B4593" stroke="white" stroke-width="1.89583"/>
<path d="M20.7066 36.669C20.4605 36.419 20.3214 36.0759 20.3244 35.7123C20.3273 35.348 20.473 34.9931 20.7333 34.7286C20.9937 34.4642 21.343 34.3162 21.7017 34.3132C22.0596 34.3102 22.3972 34.4514 22.6434 34.7015C22.8896 34.9516 23.0286 35.2946 23.0257 35.6582C23.0227 36.0226 22.877 36.3774 22.6167 36.6419C22.3564 36.9064 22.007 37.0544 21.6484 37.0574C21.2905 37.0604 20.9528 36.9191 20.7066 36.669Z" fill="#2B4593" stroke="white" stroke-width="1.89583"/>
<path d="M18.6467 40.0797C18.4005 39.8296 18.2615 39.4866 18.2644 39.123C18.2674 38.7586 18.4131 38.4037 18.6734 38.1393C18.9337 37.8748 19.2831 37.7268 19.6417 37.7238C19.9996 37.7208 20.3373 37.8621 20.5835 38.1121C20.8297 38.3622 20.9687 38.7053 20.9657 39.0689C20.9628 39.4332 20.8171 39.7881 20.5568 40.0526C20.2964 40.317 19.9471 40.465 19.5885 40.468C19.2306 40.471 18.8929 40.3298 18.6467 40.0797Z" fill="#2B4593" stroke="white" stroke-width="1.89583"/>
<path d="M15.2497 37.8414C15.0035 37.5913 14.8645 37.2483 14.8675 36.8847C14.8704 36.5204 15.0161 36.1655 15.2764 35.901C15.5368 35.6365 15.8861 35.4885 16.2448 35.4855C16.6027 35.4825 16.9403 35.6238 17.1865 35.8739C17.4327 36.124 17.5717 36.467 17.5688 36.8306C17.5658 37.1949 17.4201 37.5498 17.1598 37.8143C16.8995 38.0787 16.5501 38.2267 16.1915 38.2297C15.8336 38.2327 15.4959 38.0915 15.2497 37.8414Z" fill="#2B4593" stroke="white" stroke-width="1.89583"/>
<path d="M11.9577 35.7086C11.7116 35.4585 11.5725 35.1155 11.5755 34.7519C11.5784 34.3875 11.7241 34.0327 11.9844 33.7682C12.2448 33.5037 12.5941 33.3557 12.9528 33.3527C13.3107 33.3497 13.6483 33.491 13.8945 33.7411C14.1407 33.9911 14.2797 34.3342 14.2768 34.6978C14.2738 35.0621 14.1281 35.417 13.8678 35.6815C13.6075 35.9459 13.2581 36.0939 12.8995 36.0969C12.5416 36.0999 12.2039 35.9587 11.9577 35.7086Z" fill="#2B4593" stroke="white" stroke-width="1.89583"/>
<path d="M8.66574 33.5768C8.41956 33.3267 8.28052 32.9836 8.28347 32.62C8.28643 32.2557 8.43211 31.9008 8.69245 31.6363C8.95279 31.3719 9.30213 31.2239 9.66077 31.2209C10.0187 31.2179 10.3563 31.3591 10.6025 31.6092C10.8487 31.8593 10.9877 32.2023 10.9848 32.5659C10.9818 32.9303 10.8362 33.2852 10.5758 33.5496C10.3155 33.8141 9.96614 33.9621 9.6075 33.9651C9.2496 33.9681 8.91192 33.8268 8.66574 33.5768Z" fill="#2B4593" stroke="white" stroke-width="1.89583"/>
<rect x="-0.787523" y="0.792907" width="10.8101" height="1.58035" transform="matrix(0.0033531 0.999994 -0.999994 0.00346046 21.2244 42.1983)" fill="#2B4593" stroke="white" stroke-width="1.58035"/>
<rect x="15.9547" y="44.5727" width="7.26925" height="1.54582" fill="#2B4593" stroke="white" stroke-width="1.54582"/>
</svg>
