<svg width="47" height="55" viewBox="0 0 47 55" fill="none" xmlns="http://www.w3.org/2000/svg">
<path d="M11.8762 7.06069C13.165 6.31347 14.7977 6.72174 15.5229 7.97259L18.1481 12.5005C17.4244 11.2499 17.8815 9.63135 19.1696 8.88449C20.4584 8.13727 22.0911 8.54555 22.8163 9.7964L29.3796 21.1166C28.6577 19.8664 29.115 18.2493 30.4024 17.5029C31.6912 16.7557 33.3239 17.164 34.0491 18.4148L43.4598 34.6463C45.3937 37.9819 44.1753 42.3013 40.7385 44.2939L29.8485 50.6077C26.4116 52.6003 22.0578 51.5116 20.1239 48.176L6.0626 23.923C5.33738 22.6722 5.79426 21.0524 7.08307 20.3052C8.37098 19.5585 10.0023 19.9657 10.7283 21.2145L7.9394 16.4043C7.21418 15.1534 7.67106 13.5337 8.95987 12.7864C10.2345 12.0474 11.8455 12.4387 12.5823 13.6574L12.5819 13.6558L10.8558 10.6785C10.1305 9.42766 10.5874 7.80791 11.8762 7.06069Z" fill="#2B4593"/>
<path d="M23.0797 33.3631C22.8336 33.113 22.6945 32.77 22.6975 32.4064C22.7004 32.0421 22.8461 31.6872 23.1064 31.4227C23.3668 31.1583 23.7161 31.0103 24.0748 31.0073C24.4327 31.0043 24.7703 31.1455 25.0165 31.3956C25.2627 31.6457 25.4017 31.9887 25.3988 32.3523C25.3958 32.7166 25.2502 33.0715 24.9898 33.336C24.7295 33.6005 24.3801 33.7485 24.0215 33.7515C23.6636 33.7545 23.3259 33.6132 23.0797 33.3631Z" fill="#2B4593" stroke="white" stroke-width="1.89583"/>
<path d="M25.2174 30.0581C24.9713 29.808 24.8322 29.465 24.8352 29.1014C24.8381 28.737 24.9838 28.3821 25.2441 28.1177C25.5045 27.8532 25.8538 27.7052 26.2125 27.7022C26.5704 27.6992 26.908 27.8405 27.1542 28.0905C27.4004 28.3406 27.5394 28.6837 27.5365 29.0473C27.5335 29.4116 27.3879 29.7665 27.1275 30.031C26.8672 30.2954 26.5178 30.4434 26.1592 30.4464C25.8013 30.4494 25.4636 30.3082 25.2174 30.0581Z" fill="#2B4593" stroke="white" stroke-width="1.89583"/>
<path d="M27.3551 26.7536C27.109 26.5035 26.9699 26.1605 26.9729 25.7969C26.9758 25.4326 27.1215 25.0777 27.3818 24.8132C27.6422 24.5488 27.9915 24.4008 28.3502 24.3978C28.7081 24.3948 29.0457 24.536 29.2919 24.7861C29.5381 25.0362 29.6771 25.3792 29.6742 25.7428C29.6712 26.1071 29.5255 26.462 29.2652 26.7265C29.0049 26.991 28.6555 27.139 28.2969 27.142C27.939 27.145 27.6013 27.0037 27.3551 26.7536Z" fill="#2B4593" stroke="white" stroke-width="1.89583"/>
<path d="M29.4926 23.4487C29.2464 23.1986 29.1074 22.8556 29.1103 22.492C29.1133 22.1277 29.259 21.7728 29.5193 21.5083C29.7796 21.2438 30.129 21.0958 30.4876 21.0928C30.8455 21.0898 31.1832 21.2311 31.4294 21.4812C31.6755 21.7313 31.8146 22.0743 31.8116 22.4379C31.8087 22.8022 31.663 23.1571 31.4027 23.4216C31.1423 23.686 30.793 23.834 30.4343 23.837C30.0764 23.84 29.7388 23.6988 29.4926 23.4487Z" fill="#2B4593" stroke="white" stroke-width="1.89583"/>
<path d="M20.9147 36.6687C20.6685 36.4186 20.5295 36.0756 20.5324 35.712C20.5354 35.3476 20.6811 34.9927 20.9414 34.7283C21.2017 34.4638 21.5511 34.3158 21.9097 34.3128C22.2676 34.3098 22.6053 34.451 22.8515 34.7011C23.0977 34.9512 23.2367 35.2943 23.2338 35.6578C23.2308 36.0222 23.0851 36.3771 22.8248 36.6415C22.5644 36.906 22.2151 37.054 21.8565 37.057C21.4986 37.06 21.1609 36.9188 20.9147 36.6687Z" fill="#2B4593" stroke="white" stroke-width="1.89583"/>
<path d="M18.8549 40.0796C18.6087 39.8295 18.4697 39.4864 18.4726 39.1229C18.4756 38.7585 18.6213 38.4036 18.8816 38.1392C19.1419 37.8747 19.4913 37.7267 19.8499 37.7237C20.2078 37.7207 20.5455 37.8619 20.7917 38.112C21.0378 38.3621 21.1769 38.7052 21.1739 39.0687C21.171 39.4331 21.0253 39.788 20.765 40.0524C20.5046 40.3169 20.1553 40.4649 19.7966 40.4679C19.4387 40.4709 19.1011 40.3297 18.8549 40.0796Z" fill="#2B4593" stroke="white" stroke-width="1.89583"/>
<path d="M15.4579 37.8412C15.2117 37.5911 15.0727 37.248 15.0756 36.8844C15.0786 36.5201 15.2243 36.1652 15.4846 35.9008C15.745 35.6363 16.0943 35.4883 16.4529 35.4853C16.8108 35.4823 17.1485 35.6235 17.3947 35.8736C17.6409 36.1237 17.7799 36.4667 17.777 36.8303C17.774 37.1947 17.6283 37.5496 17.368 37.814C17.1077 38.0785 16.7583 38.2265 16.3997 38.2295C16.0418 38.2325 15.7041 38.0913 15.4579 37.8412Z" fill="#2B4593" stroke="white" stroke-width="1.89583"/>
<path d="M12.1659 35.7086C11.9197 35.4585 11.7807 35.1155 11.7837 34.7519C11.7866 34.3875 11.9323 34.0327 12.1926 33.7682C12.453 33.5037 12.8023 33.3557 13.161 33.3527C13.5189 33.3497 13.8565 33.491 14.1027 33.7411C14.3489 33.9911 14.4879 34.3342 14.485 34.6978C14.482 35.0621 14.3363 35.417 14.076 35.6815C13.8157 35.9459 13.4663 36.0939 13.1077 36.0969C12.7498 36.0999 12.4121 35.9587 12.1659 35.7086Z" fill="#2B4593" stroke="white" stroke-width="1.89583"/>
<path d="M8.87393 33.5765C8.62775 33.3264 8.48871 32.9834 8.49166 32.6198C8.49462 32.2555 8.6403 31.9006 8.90064 31.6361C9.16098 31.3716 9.51032 31.2236 9.86896 31.2206C10.2269 31.2176 10.5645 31.3589 10.8107 31.609C11.0569 31.8591 11.1959 32.2021 11.193 32.5657C11.19 32.93 11.0443 33.2849 10.784 33.5494C10.5237 33.8139 10.1743 33.9619 9.81569 33.9649C9.45779 33.9679 9.12011 33.8266 8.87393 33.5765Z" fill="#2B4593" stroke="white" stroke-width="1.89583"/>
<rect x="-0.787523" y="0.792907" width="10.8101" height="1.58035" transform="matrix(0.0033531 0.999994 -0.999994 0.00346046 21.4326 42.1979)" fill="#2B4593" stroke="white" stroke-width="1.58035"/>
<rect x="16.1628" y="44.5727" width="7.26925" height="1.54582" fill="#2B4593" stroke="white" stroke-width="1.54582"/>
</svg>
