<svg width="47" height="55" viewBox="0 0 47 55" fill="none" xmlns="http://www.w3.org/2000/svg">
<path d="M11.876 7.06081C13.1648 6.31359 14.7975 6.72186 15.5227 7.97271L18.1479 12.5006C17.4241 11.25 17.8812 9.63147 19.1694 8.88461C20.4582 8.1374 22.0909 8.54567 22.8161 9.79652L29.3793 21.1168C28.6575 19.8665 29.1147 18.2494 30.4021 17.503C31.691 16.7558 33.3236 17.1641 34.0489 18.4149L43.4595 34.6465C45.3934 37.9821 44.1751 42.3014 40.7383 44.294L29.8482 50.6078C26.4114 52.6004 22.0576 51.5117 20.1237 48.1761L6.06235 23.9231C5.33714 22.6723 5.79402 21.0525 7.08282 20.3053C8.37074 19.5586 10.0021 19.9658 10.728 21.2146L7.93915 16.4044C7.21394 15.1535 7.67082 13.5338 8.95962 12.7866C10.2343 12.0475 11.8453 12.4388 12.5821 13.6575L12.5817 13.6559L10.8555 10.6786C10.1303 9.42779 10.5872 7.80803 11.876 7.06081Z" fill="#2B4593"/>
<path d="M23.0797 33.3631C22.8336 33.113 22.6945 32.77 22.6975 32.4064C22.7004 32.0421 22.8461 31.6872 23.1064 31.4227C23.3668 31.1583 23.7161 31.0103 24.0748 31.0073C24.4327 31.0043 24.7703 31.1455 25.0165 31.3956C25.2627 31.6457 25.4017 31.9887 25.3988 32.3523C25.3958 32.7166 25.2502 33.0715 24.9898 33.336C24.7295 33.6005 24.3801 33.7485 24.0215 33.7515C23.6636 33.7545 23.3259 33.6132 23.0797 33.3631Z" fill="#2B4593" stroke="white" stroke-width="1.89583"/>
<path d="M25.2174 30.0582C24.9713 29.8081 24.8322 29.4651 24.8352 29.1015C24.8381 28.7372 24.9838 28.3823 25.2441 28.1178C25.5045 27.8533 25.8538 27.7053 26.2125 27.7023C26.5704 27.6993 26.908 27.8406 27.1542 28.0907C27.4004 28.3408 27.5394 28.6838 27.5365 29.0474C27.5335 29.4117 27.3879 29.7666 27.1275 30.0311C26.8672 30.2955 26.5178 30.4435 26.1592 30.4465C25.8013 30.4495 25.4636 30.3083 25.2174 30.0582Z" fill="#2B4593" stroke="white" stroke-width="1.89583"/>
<path d="M27.3546 26.7538C27.1085 26.5037 26.9694 26.1606 26.9724 25.797C26.9753 25.4327 27.121 25.0778 27.3814 24.8133C27.6417 24.5489 27.991 24.4009 28.3497 24.3979C28.7076 24.3949 29.0452 24.5361 29.2914 24.7862C29.5376 25.0363 29.6766 25.3793 29.6737 25.7429C29.6707 26.1073 29.5251 26.4622 29.2647 26.7266C29.0044 26.9911 28.655 27.1391 28.2964 27.1421C27.9385 27.1451 27.6008 27.0038 27.3546 26.7538Z" fill="#2B4593" stroke="white" stroke-width="1.89583"/>
<path d="M29.4923 23.4486C29.2462 23.1985 29.1071 22.8555 29.1101 22.4919C29.113 22.1275 29.2587 21.7726 29.519 21.5082C29.7794 21.2437 30.1287 21.0957 30.4874 21.0927C30.8453 21.0897 31.1829 21.231 31.4291 21.481C31.6753 21.7311 31.8143 22.0742 31.8114 22.4378C31.8084 22.8021 31.6628 23.157 31.4024 23.4215C31.1421 23.6859 30.7927 23.8339 30.4341 23.8369C30.0762 23.8399 29.7385 23.6987 29.4923 23.4486Z" fill="#2B4593" stroke="white" stroke-width="1.89583"/>
<path d="M20.9147 36.6688C20.6685 36.4187 20.5295 36.0757 20.5324 35.7121C20.5354 35.3478 20.6811 34.9929 20.9414 34.7284C21.2017 34.4639 21.5511 34.3159 21.9097 34.3129C22.2676 34.3099 22.6053 34.4512 22.8515 34.7013C23.0977 34.9513 23.2367 35.2944 23.2338 35.658C23.2308 36.0223 23.0851 36.3772 22.8248 36.6417C22.5644 36.9061 22.2151 37.0541 21.8565 37.0571C21.4986 37.0601 21.1609 36.9189 20.9147 36.6688Z" fill="#2B4593" stroke="white" stroke-width="1.89583"/>
<path d="M18.8546 40.0794C18.6085 39.8294 18.4694 39.4863 18.4724 39.1227C18.4753 38.7584 18.621 38.4035 18.8814 38.139C19.1417 37.8746 19.491 37.7266 19.8497 37.7236C20.2076 37.7206 20.5452 37.8618 20.7914 38.1119C21.0376 38.362 21.1766 38.705 21.1737 39.0686C21.1707 39.433 21.0251 39.7878 20.7647 40.0523C20.5044 40.3168 20.155 40.4648 19.7964 40.4678C19.4385 40.4708 19.1008 40.3295 18.8546 40.0794Z" fill="#2B4593" stroke="white" stroke-width="1.89583"/>
<path d="M15.4577 37.8412C15.2115 37.5911 15.0725 37.248 15.0754 36.8844C15.0784 36.5201 15.224 36.1652 15.4844 35.9008C15.7447 35.6363 16.0941 35.4883 16.4527 35.4853C16.8106 35.4823 17.1483 35.6235 17.3945 35.8736C17.6406 36.1237 17.7797 36.4667 17.7767 36.8303C17.7738 37.1947 17.6281 37.5496 17.3677 37.814C17.1074 38.0785 16.7581 38.2265 16.3994 38.2295C16.0415 38.2325 15.7039 38.0913 15.4577 37.8412Z" fill="#2B4593" stroke="white" stroke-width="1.89583"/>
<path d="M12.1657 35.7086C11.9195 35.4585 11.7805 35.1155 11.7834 34.7519C11.7864 34.3875 11.932 34.0327 12.1924 33.7682C12.4527 33.5037 12.8021 33.3557 13.1607 33.3527C13.5186 33.3497 13.8563 33.491 14.1025 33.7411C14.3486 33.9911 14.4877 34.3342 14.4847 34.6978C14.4818 35.0621 14.3361 35.417 14.0758 35.6815C13.8154 35.9459 13.4661 36.0939 13.1074 36.0969C12.7495 36.0999 12.4119 35.9587 12.1657 35.7086Z" fill="#2B4593" stroke="white" stroke-width="1.89583"/>
<path d="M8.87369 33.5765C8.62751 33.3264 8.48847 32.9834 8.49142 32.6198C8.49438 32.2555 8.64006 31.9006 8.90039 31.6361C9.16073 31.3716 9.51007 31.2236 9.86871 31.2206C10.2266 31.2176 10.5643 31.3589 10.8105 31.609C11.0566 31.8591 11.1957 32.2021 11.1927 32.5657C11.1898 32.93 11.0441 33.2849 10.7838 33.5494C10.5234 33.8139 10.1741 33.9619 9.81544 33.9649C9.45754 33.9679 9.11987 33.8266 8.87369 33.5765Z" fill="#2B4593" stroke="white" stroke-width="1.89583"/>
<rect x="-0.787523" y="0.792907" width="10.8101" height="1.58035" transform="matrix(0.0033531 0.999994 -0.999994 0.00346046 21.4323 42.198)" fill="#2B4593" stroke="white" stroke-width="1.58035"/>
<rect x="16.1626" y="44.5727" width="7.26925" height="1.54582" fill="#2B4593" stroke="white" stroke-width="1.54582"/>
</svg>
