<svg width="29" height="34" viewBox="0 0 29 34" fill="none" xmlns="http://www.w3.org/2000/svg">
<path d="M7.4672 4.90747C8.24792 4.45483 9.23695 4.70215 9.67626 5.45987L11.2665 8.20274C10.8281 7.44516 11.105 6.4647 11.8853 6.01228C12.666 5.55963 13.6551 5.80695 14.0944 6.56468L18.0702 13.4221C17.6329 12.6648 17.9099 11.6852 18.6898 11.233C19.4705 10.7804 20.4595 11.0277 20.8988 11.7854L26.5995 21.618C27.771 23.6386 27.033 26.2551 24.9511 27.4622L18.3542 31.2869C16.2723 32.494 13.6349 31.8344 12.4634 29.8138L3.94549 15.1222C3.50617 14.3644 3.78294 13.3832 4.56366 12.9306C5.34384 12.4783 6.33205 12.7249 6.77181 13.4814L5.0824 10.5675C4.64308 9.80979 4.91985 8.8286 5.70056 8.37595C6.4727 7.92828 7.4486 8.16528 7.89495 8.90356L7.8947 8.90259L6.84903 7.09904C6.40972 6.34131 6.68649 5.36011 7.4672 4.90747Z" fill="#2B4593"/>
<path d="M14.2541 20.8412C14.105 20.6897 14.0208 20.4819 14.0226 20.2617C14.0244 20.041 14.1126 19.826 14.2703 19.6658C14.428 19.5056 14.6396 19.4159 14.8569 19.4141C15.0737 19.4123 15.2783 19.4979 15.4274 19.6493C15.5765 19.8008 15.6607 20.0086 15.6589 20.2289C15.6572 20.4496 15.5689 20.6646 15.4112 20.8248C15.2535 20.985 15.0419 21.0746 14.8246 21.0765C14.6078 21.0783 14.4033 20.9927 14.2541 20.8412Z" fill="#2B4593" stroke="white" stroke-width="1.14844"/>
<path d="M15.5488 18.8393C15.3997 18.6878 15.3155 18.48 15.3173 18.2597C15.319 18.039 15.4073 17.824 15.565 17.6638C15.7227 17.5036 15.9343 17.414 16.1516 17.4121C16.3684 17.4103 16.5729 17.4959 16.7221 17.6474C16.8712 17.7989 16.9554 18.0067 16.9536 18.2269C16.9518 18.4476 16.8636 18.6626 16.7059 18.8228C16.5482 18.983 16.3366 19.0727 16.1193 19.0745C15.9025 19.0763 15.6979 18.9908 15.5488 18.8393Z" fill="#2B4593" stroke="white" stroke-width="1.14844"/>
<path d="M16.844 16.8373C16.6949 16.6858 16.6106 16.478 16.6124 16.2578C16.6142 16.0371 16.7025 15.8221 16.8602 15.6619C17.0179 15.5017 17.2295 15.412 17.4467 15.4102C17.6635 15.4084 17.8681 15.4939 18.0172 15.6454C18.1664 15.7969 18.2506 16.0047 18.2488 16.225C18.247 16.4457 18.1588 16.6607 18.001 16.8209C17.8433 16.9811 17.6317 17.0707 17.4145 17.0726C17.1977 17.0744 16.9931 16.9888 16.844 16.8373Z" fill="#2B4593" stroke="white" stroke-width="1.14844"/>
<path d="M18.1389 14.8354C17.9898 14.6839 17.9056 14.4761 17.9073 14.2558C17.9091 14.0351 17.9974 13.8201 18.1551 13.6599C18.3128 13.4997 18.5244 13.4101 18.7417 13.4082C18.9585 13.4064 19.163 13.492 19.3121 13.6435C19.4613 13.795 19.5455 14.0028 19.5437 14.223C19.5419 14.4437 19.4537 14.6587 19.296 14.8189C19.1383 14.9791 18.9266 15.0688 18.7094 15.0706C18.4926 15.0724 18.288 14.9869 18.1389 14.8354Z" fill="#2B4593" stroke="white" stroke-width="1.14844"/>
<path d="M12.9426 22.8437C12.7935 22.6922 12.7093 22.4844 12.7111 22.2641C12.7128 22.0434 12.8011 21.8284 12.9588 21.6682C13.1165 21.508 13.3281 21.4184 13.5454 21.4165C13.7622 21.4147 13.9667 21.5003 14.1159 21.6518C14.265 21.8033 14.3492 22.0111 14.3474 22.2313C14.3456 22.452 14.2574 22.667 14.0997 22.8272C13.942 22.9874 13.7304 23.0771 13.5131 23.0789C13.2963 23.0807 13.0917 22.9952 12.9426 22.8437Z" fill="#2B4593" stroke="white" stroke-width="1.14844"/>
<path d="M11.6949 24.9101C11.5458 24.7586 11.4616 24.5508 11.4634 24.3305C11.4652 24.1098 11.5534 23.8948 11.7111 23.7346C11.8688 23.5744 12.0804 23.4848 12.2977 23.483C12.5145 23.4811 12.7191 23.5667 12.8682 23.7182C13.0173 23.8697 13.1015 24.0775 13.0997 24.2977C13.098 24.5184 13.0097 24.7334 12.852 24.8936C12.6943 25.0538 12.4827 25.1435 12.2654 25.1453C12.0486 25.1471 11.8441 25.0616 11.6949 24.9101Z" fill="#2B4593" stroke="white" stroke-width="1.14844"/>
<path d="M9.63683 23.5536C9.4877 23.4021 9.40348 23.1943 9.40526 22.9741C9.40705 22.7534 9.4953 22.5384 9.65301 22.3782C9.81071 22.218 10.0223 22.1283 10.2396 22.1265C10.4564 22.1247 10.6609 22.2103 10.8101 22.3617C10.9592 22.5132 11.0434 22.721 11.0416 22.9413C11.0398 23.162 10.9516 23.377 10.7939 23.5372C10.6362 23.6974 10.4246 23.787 10.2073 23.7889C9.99051 23.7907 9.78596 23.7051 9.63683 23.5536Z" fill="#2B4593" stroke="white" stroke-width="1.14844"/>
<path d="M7.64281 22.2621C7.49368 22.1106 7.40946 21.9028 7.41125 21.6826C7.41304 21.4619 7.50128 21.2469 7.65899 21.0867C7.81669 20.9265 8.02831 20.8368 8.24557 20.835C8.46237 20.8332 8.66693 20.9187 8.81605 21.0702C8.96518 21.2217 9.04941 21.4295 9.04762 21.6498C9.04583 21.8705 8.95758 22.0855 8.79988 22.2457C8.64217 22.4059 8.43055 22.4955 8.2133 22.4974C7.99649 22.4992 7.79194 22.4136 7.64281 22.2621Z" fill="#2B4593" stroke="white" stroke-width="1.14844"/>
<path d="M5.64855 20.9701C5.49942 20.8186 5.4152 20.6108 5.41698 20.3906C5.41877 20.1699 5.50702 19.9549 5.66473 19.7947C5.82243 19.6345 6.03405 19.5448 6.2513 19.543C6.46811 19.5412 6.67266 19.6268 6.82179 19.7783C6.97092 19.9297 7.05514 20.1376 7.05336 20.3578C7.05157 20.5785 6.96332 20.7935 6.80561 20.9537C6.64791 21.1139 6.43629 21.2036 6.21904 21.2054C6.00223 21.2072 5.79768 21.1216 5.64855 20.9701Z" fill="#2B4593" stroke="white" stroke-width="1.14844"/>
<rect x="-0.477057" y="0.480319" width="6.54843" height="0.95733" transform="matrix(0.0033531 0.999994 -0.999994 0.00346046 13.2561 26.1925)" fill="#2B4593" stroke="white" stroke-width="0.95733"/>
<rect x="10.0643" y="27.6308" width="4.40349" height="0.936408" fill="#2B4593" stroke="white" stroke-width="0.936408"/>
</svg>
