<svg width="30" height="34" viewBox="0 0 30 34" fill="none" xmlns="http://www.w3.org/2000/svg">
<path d="M7.5415 4.30947C8.33882 3.84721 9.34887 4.09978 9.79752 4.87362L11.4216 7.67479C10.9739 6.90111 11.2566 5.8998 12.0535 5.43776C12.8509 4.9755 13.8609 5.22808 14.3096 6.00191L18.3699 13.0051C17.9233 12.2316 18.2062 11.2313 19.0026 10.7695C19.8 10.3072 20.81 10.5598 21.2587 11.3337L27.0805 21.3752C28.2769 23.4388 27.5232 26.1109 25.397 27.3436L18.6599 31.2496C16.5338 32.4823 13.8403 31.8088 12.6439 29.7453L3.94493 14.7413C3.49628 13.9674 3.77893 12.9654 4.57624 12.5031C5.373 12.0412 6.38222 12.2931 6.83133 13.0657L5.106 10.0898C4.65735 9.316 4.94 8.31395 5.73731 7.85168C6.52586 7.3945 7.52251 7.63653 7.97834 8.39051L7.97808 8.38952L6.91019 6.54763C6.46154 5.77379 6.74419 4.77174 7.5415 4.30947Z" fill="#2B4593"/>
<path d="M14.4773 20.1641C14.3281 20.0125 14.2438 19.8047 14.2456 19.5843C14.2474 19.3635 14.3357 19.1484 14.4935 18.9882C14.6512 18.8279 14.8629 18.7382 15.0803 18.7364C15.2972 18.7346 15.5018 18.8202 15.651 18.9717C15.8002 19.1233 15.8845 19.3312 15.8827 19.5515C15.8809 19.7723 15.7926 19.9874 15.6348 20.1477C15.4771 20.3079 15.2653 20.3976 15.048 20.3994C14.8311 20.4013 14.6265 20.3157 14.4773 20.1641Z" fill="#2B4593" stroke="white" stroke-width="1.14893"/>
<path d="M15.7717 18.1612C15.6225 18.0097 15.5382 17.8018 15.54 17.5814C15.5418 17.3606 15.6301 17.1456 15.7879 16.9853C15.9457 16.825 16.1574 16.7353 16.3747 16.7335C16.5916 16.7317 16.7963 16.8173 16.9454 16.9688C17.0946 17.1204 17.1789 17.3283 17.1771 17.5486C17.1753 17.7694 17.087 17.9845 16.9293 18.1448C16.7715 18.3051 16.5598 18.3948 16.3424 18.3966C16.1255 18.3984 15.9209 18.3128 15.7717 18.1612Z" fill="#2B4593" stroke="white" stroke-width="1.14893"/>
<path d="M17.0691 16.1585C16.9199 16.007 16.8356 15.7991 16.8374 15.5788C16.8392 15.358 16.9275 15.1429 17.0852 14.9826C17.243 14.8223 17.4547 14.7326 17.6721 14.7308C17.889 14.729 18.0936 14.8146 18.2428 14.9662C18.392 15.1177 18.4763 15.3256 18.4745 15.546C18.4727 15.7668 18.3844 15.9818 18.2266 16.1421C18.0689 16.3024 17.8571 16.3921 17.6398 16.3939C17.4229 16.3957 17.2183 16.3101 17.0691 16.1585Z" fill="#2B4593" stroke="white" stroke-width="1.14893"/>
<path d="M18.3625 14.1556C18.2133 14.0041 18.1291 13.7962 18.1309 13.5758C18.1326 13.355 18.2209 13.14 18.3787 12.9797C18.5365 12.8194 18.7482 12.7297 18.9655 12.7279C19.1824 12.7261 19.3871 12.8117 19.5363 12.9632C19.6855 13.1148 19.7697 13.3227 19.7679 13.543C19.7661 13.7638 19.6779 13.9789 19.5201 14.1392C19.3623 14.2995 19.1506 14.3891 18.9333 14.391C18.7164 14.3928 18.5117 14.3072 18.3625 14.1556Z" fill="#2B4593" stroke="white" stroke-width="1.14893"/>
<path d="M13.1653 22.1673C13.0161 22.0158 12.9318 21.8079 12.9336 21.5875C12.9354 21.3667 13.0237 21.1517 13.1814 20.9914C13.3392 20.8311 13.5509 20.7414 13.7683 20.7396C13.9852 20.7378 14.1898 20.8234 14.339 20.975C14.4882 21.1265 14.5725 21.3344 14.5707 21.5547C14.5689 21.7755 14.4806 21.9906 14.3228 22.1509C14.165 22.3112 13.9533 22.4009 13.736 22.4027C13.5191 22.4045 13.3144 22.3189 13.1653 22.1673Z" fill="#2B4593" stroke="white" stroke-width="1.14893"/>
<path d="M11.9187 24.2344C11.7695 24.0828 11.6852 23.8749 11.687 23.6546C11.6888 23.4338 11.7771 23.2187 11.9349 23.0584C12.0926 22.8981 12.3043 22.8084 12.5217 22.8066C12.7386 22.8048 12.9432 22.8904 13.0924 23.042C13.2416 23.1935 13.3259 23.4014 13.3241 23.6218C13.3223 23.8426 13.234 24.0576 13.0762 24.2179C12.9185 24.3782 12.7068 24.4679 12.4894 24.4697C12.2725 24.4715 12.0679 24.3859 11.9187 24.2344Z" fill="#2B4593" stroke="white" stroke-width="1.14893"/>
<path d="M9.85617 22.8779C9.70698 22.7263 9.62272 22.5185 9.62451 22.2981C9.6263 22.0773 9.71458 21.8622 9.87236 21.702C10.0301 21.5417 10.2418 21.452 10.4592 21.4502C10.6761 21.4484 10.8807 21.534 11.0299 21.6855C11.1791 21.8371 11.2634 22.045 11.2616 22.2653C11.2598 22.4861 11.1715 22.7012 11.0137 22.8615C10.856 23.0217 10.6443 23.1114 10.4269 23.1133C10.21 23.1151 10.0054 23.0295 9.85617 22.8779Z" fill="#2B4593" stroke="white" stroke-width="1.14893"/>
<path d="M7.86545 21.5856C7.71626 21.4341 7.632 21.2262 7.63378 21.0058C7.63558 20.785 7.72386 20.5699 7.88163 20.4097C8.03941 20.2494 8.25112 20.1597 8.46846 20.1579C8.68536 20.1561 8.89 20.2417 9.0392 20.3932C9.18839 20.5448 9.27265 20.7527 9.27086 20.973C9.26907 21.1938 9.18078 21.4089 9.02301 21.5692C8.86524 21.7294 8.65353 21.8191 8.43618 21.821C8.21928 21.8228 8.01464 21.7372 7.86545 21.5856Z" fill="#2B4593" stroke="white" stroke-width="1.14893"/>
<path d="M5.86887 20.2935C5.71968 20.1419 5.63541 19.934 5.6372 19.7137C5.63899 19.4929 5.72728 19.2778 5.88505 19.1176C6.04282 18.9573 6.25454 18.8676 6.47188 18.8658C6.68878 18.8639 6.89342 18.9495 7.04261 19.1011C7.19181 19.2527 7.27607 19.4606 7.27428 19.6809C7.27249 19.9017 7.1842 20.1168 7.02643 20.2771C6.86866 20.4373 6.65695 20.527 6.4396 20.5288C6.2227 20.5307 6.01806 20.4451 5.86887 20.2935Z" fill="#2B4593" stroke="white" stroke-width="1.14893"/>
<rect x="-0.477263" y="0.480526" width="6.55125" height="0.957742" transform="matrix(0.0033531 0.999994 -0.999994 0.00346046 13.4809 25.5183)" fill="#2B4593" stroke="white" stroke-width="0.957742"/>
<rect x="10.2863" y="26.9575" width="4.40539" height="0.936811" fill="#2B4593" stroke="white" stroke-width="0.936811"/>
</svg>
