<svg width="30" height="34" viewBox="0 0 30 34" fill="none" xmlns="http://www.w3.org/2000/svg">
<path d="M7.5415 4.64248C8.33882 4.18022 9.34887 4.43279 9.79752 5.20663L11.4216 8.0078C10.9739 7.23412 11.2566 6.23281 12.0535 5.77077C12.8509 5.30851 13.8609 5.56108 14.3096 6.33492L18.3699 13.3381C17.9233 12.5647 18.2062 11.5643 19.0026 11.1025C19.8 10.6402 20.81 10.8928 21.2587 11.6667L27.0805 21.7082C28.2769 23.7718 27.5232 26.4439 25.397 27.6766L18.6599 31.5826C16.5338 32.8154 13.8403 32.1418 12.6439 30.0783L3.94493 15.0743C3.49628 14.3005 3.77893 13.2984 4.57624 12.8361C5.373 12.3742 6.38222 12.6261 6.83133 13.3987L5.106 10.4228C4.65735 9.64901 4.94 8.64695 5.73731 8.18469C6.52586 7.7275 7.52251 7.96954 7.97834 8.72351L7.97808 8.72253L6.91019 6.88063C6.46154 6.1068 6.74419 5.10474 7.5415 4.64248Z" fill="#2B4593"/>
<path d="M14.4773 20.497C14.3281 20.3454 14.2438 20.1375 14.2456 19.9172C14.2474 19.6964 14.3357 19.4813 14.4935 19.321C14.6512 19.1608 14.8629 19.0711 15.0803 19.0693C15.2972 19.0674 15.5018 19.153 15.651 19.3046C15.8002 19.4562 15.8845 19.6641 15.8827 19.8844C15.8809 20.1052 15.7926 20.3203 15.6348 20.4805C15.4771 20.6408 15.2653 20.7305 15.048 20.7323C14.8311 20.7342 14.6265 20.6486 14.4773 20.497Z" fill="#2B4593" stroke="white" stroke-width="1.14893"/>
<path d="M15.7717 18.4939C15.6225 18.3424 15.5382 18.1345 15.54 17.9141C15.5418 17.6933 15.6301 17.4783 15.7879 17.318C15.9457 17.1577 16.1574 17.068 16.3747 17.0662C16.5916 17.0644 16.7963 17.15 16.9454 17.3015C17.0946 17.4531 17.1789 17.661 17.1771 17.8813C17.1753 18.1021 17.087 18.3172 16.9293 18.4775C16.7715 18.6378 16.5598 18.7275 16.3424 18.7293C16.1255 18.7311 15.9209 18.6455 15.7717 18.4939Z" fill="#2B4593" stroke="white" stroke-width="1.14893"/>
<path d="M17.0691 16.4913C16.9199 16.3397 16.8356 16.1318 16.8374 15.9115C16.8392 15.6907 16.9275 15.4756 17.0852 15.3153C17.243 15.155 17.4547 15.0653 17.6721 15.0635C17.889 15.0617 18.0936 15.1473 18.2428 15.2989C18.392 15.4504 18.4763 15.6583 18.4745 15.8787C18.4727 16.0995 18.3844 16.3145 18.2266 16.4748C18.0689 16.6351 17.8571 16.7248 17.6398 16.7266C17.4229 16.7284 17.2183 16.6428 17.0691 16.4913Z" fill="#2B4593" stroke="white" stroke-width="1.14893"/>
<path d="M18.3625 14.4884C18.2133 14.3369 18.1291 14.129 18.1309 13.9086C18.1326 13.6878 18.2209 13.4728 18.3787 13.3125C18.5365 13.1522 18.7482 13.0625 18.9655 13.0607C19.1824 13.0589 19.3871 13.1445 19.5363 13.2961C19.6855 13.4476 19.7697 13.6555 19.7679 13.8759C19.7661 14.0967 19.6779 14.3117 19.5201 14.472C19.3623 14.6323 19.1506 14.722 18.9333 14.7238C18.7164 14.7256 18.5117 14.64 18.3625 14.4884Z" fill="#2B4593" stroke="white" stroke-width="1.14893"/>
<path d="M13.1653 22.5C13.0161 22.3485 12.9318 22.1406 12.9336 21.9202C12.9354 21.6994 13.0237 21.4844 13.1814 21.3241C13.3392 21.1638 13.5509 21.0741 13.7683 21.0723C13.9852 21.0705 14.1898 21.1561 14.339 21.3077C14.4882 21.4592 14.5725 21.6671 14.5707 21.8874C14.5689 22.1082 14.4806 22.3233 14.3228 22.4836C14.165 22.6439 13.9533 22.7336 13.736 22.7354C13.5191 22.7372 13.3144 22.6516 13.1653 22.5Z" fill="#2B4593" stroke="white" stroke-width="1.14893"/>
<path d="M11.9187 24.5671C11.7695 24.4155 11.6852 24.2076 11.687 23.9873C11.6888 23.7665 11.7771 23.5514 11.9349 23.3911C12.0926 23.2308 12.3043 23.1411 12.5217 23.1393C12.7386 23.1375 12.9432 23.2231 13.0924 23.3747C13.2416 23.5262 13.3259 23.7341 13.3241 23.9545C13.3223 24.1753 13.234 24.3903 13.0762 24.5506C12.9185 24.7109 12.7068 24.8006 12.4894 24.8024C12.2725 24.8042 12.0679 24.7186 11.9187 24.5671Z" fill="#2B4593" stroke="white" stroke-width="1.14893"/>
<path d="M9.85617 23.2107C9.70698 23.0592 9.62272 22.8513 9.62451 22.6309C9.6263 22.4101 9.71458 22.1951 9.87236 22.0348C10.0301 21.8745 10.2418 21.7848 10.4592 21.783C10.6761 21.7812 10.8807 21.8668 11.0299 22.0183C11.1791 22.1699 11.2634 22.3778 11.2616 22.5981C11.2598 22.8189 11.1715 23.034 11.0137 23.1943C10.856 23.3546 10.6443 23.4443 10.4269 23.4461C10.21 23.4479 10.0054 23.3623 9.85617 23.2107Z" fill="#2B4593" stroke="white" stroke-width="1.14893"/>
<path d="M7.86545 21.9184C7.71626 21.7668 7.632 21.5589 7.63378 21.3386C7.63558 21.1178 7.72386 20.9027 7.88163 20.7424C8.03941 20.5822 8.25112 20.4925 8.46846 20.4906C8.68536 20.4888 8.89 20.5744 9.0392 20.726C9.18839 20.8775 9.27265 21.0854 9.27086 21.3058C9.26907 21.5266 9.18078 21.7417 9.02301 21.9019C8.86524 22.0622 8.65353 22.1519 8.43618 22.1537C8.21928 22.1555 8.01464 22.0699 7.86545 21.9184Z" fill="#2B4593" stroke="white" stroke-width="1.14893"/>
<path d="M5.86887 20.6261C5.71968 20.4746 5.63541 20.2667 5.6372 20.0463C5.63899 19.8255 5.72728 19.6105 5.88505 19.4502C6.04282 19.2899 6.25454 19.2002 6.47188 19.1984C6.68878 19.1966 6.89342 19.2822 7.04261 19.4338C7.19181 19.5853 7.27607 19.7932 7.27428 20.0135C7.27249 20.2343 7.1842 20.4494 7.02643 20.6097C6.86866 20.77 6.65695 20.8597 6.4396 20.8615C6.2227 20.8633 6.01806 20.7777 5.86887 20.6261Z" fill="#2B4593" stroke="white" stroke-width="1.14893"/>
<rect x="-0.477263" y="0.480526" width="6.55125" height="0.957742" transform="matrix(0.0033531 0.999994 -0.999994 0.00346046 13.4809 25.8509)" fill="#2B4593" stroke="white" stroke-width="0.957742"/>
<rect x="10.2863" y="27.2902" width="4.40539" height="0.936811" fill="#2B4593" stroke="white" stroke-width="0.936811"/>
</svg>
