<svg width="29" height="38" viewBox="0 0 29 38" fill="none" xmlns="http://www.w3.org/2000/svg">
<path d="M7.55656 4.72327C8.3436 4.26696 9.34064 4.51628 9.78351 5.28015L11.3867 8.04524C10.9447 7.28152 11.2238 6.29312 12.0105 5.83703C12.7975 5.38072 13.7946 5.63004 14.2374 6.39391L18.2454 13.3069C17.8046 12.5434 18.0839 11.5559 18.8701 11.1001C19.6571 10.6438 20.6542 10.8931 21.097 11.657L26.8439 21.5692C28.0249 23.6062 27.2809 26.2439 25.1821 27.4607L18.5318 31.3164C16.433 32.5333 13.7742 31.8684 12.5932 29.8314L4.00631 15.0207C3.56344 14.2568 3.84244 13.2677 4.62948 12.8114C5.41599 12.3554 6.4122 12.6041 6.85553 13.3667L5.15243 10.4292C4.70955 9.66531 4.98856 8.67616 5.7756 8.21985C6.554 7.76856 7.5378 8.00747 7.98776 8.75174L7.98751 8.75076L6.93338 6.9326C6.49051 6.16873 6.76951 5.17958 7.55656 4.72327Z" fill="#2B4593"/>
<path d="M15.0304 21.3276C14.7136 21.0058 14.5363 20.5659 14.5401 20.1028C14.5439 19.6392 14.729 19.1905 15.0571 18.8572C15.3853 18.5238 15.827 18.3358 16.2833 18.3319C16.7391 18.3281 17.1722 18.5082 17.4889 18.83C17.8057 19.1518 17.983 19.5917 17.9793 20.0549C17.9755 20.5184 17.7904 20.9671 17.4622 21.3005C17.1341 21.6338 16.6924 21.8219 16.2361 21.8257C15.7802 21.8295 15.3472 21.6494 15.0304 21.3276Z" fill="#2B4593" stroke="white" stroke-width="1.15208"/>
<path d="M16.3296 19.3193C16.0128 18.9975 15.8355 18.5576 15.8393 18.0945C15.8431 17.6309 16.0282 17.1822 16.3563 16.8489C16.6845 16.5155 17.1262 16.3275 17.5825 16.3236C18.0383 16.3198 18.4714 16.4999 18.7881 16.8217C19.1049 17.1435 19.2822 17.5834 19.2785 18.0466C19.2747 18.5101 19.0896 18.9588 18.7614 19.2922C18.4333 19.6255 17.9916 19.8136 17.5353 19.8174C17.0794 19.8212 16.6464 19.6411 16.3296 19.3193Z" fill="#2B4593" stroke="white" stroke-width="1.15208"/>
<path d="M17.6286 17.311C17.3118 16.9892 17.1345 16.5493 17.1382 16.0862C17.142 15.6226 17.3271 15.1739 17.6553 14.8406C17.9834 14.5072 18.4251 14.3192 18.8814 14.3153C19.3373 14.3115 19.7703 14.4916 20.0871 14.8134C20.4039 15.1352 20.5812 15.5751 20.5774 16.0383C20.5736 16.5018 20.3885 16.9505 20.0604 17.2839C19.7322 17.6172 19.2905 17.8053 18.8342 17.8091C18.3784 17.8129 17.9453 17.6328 17.6286 17.311Z" fill="#2B4593" stroke="white" stroke-width="1.15208"/>
<path d="M18.9274 15.3032C18.6106 14.9814 18.4333 14.5415 18.4371 14.0784C18.4408 13.6148 18.6259 13.1661 18.9541 12.8328C19.2822 12.4994 19.7239 12.3113 20.1802 12.3075C20.6361 12.3037 21.0692 12.4838 21.3859 12.8056C21.7027 13.1274 21.88 13.5673 21.8762 14.0304C21.8725 14.494 21.6874 14.9427 21.3592 15.2761C21.0311 15.6094 20.5894 15.7975 20.1331 15.8013C19.6772 15.8051 19.2442 15.625 18.9274 15.3032Z" fill="#2B4593" stroke="white" stroke-width="1.15208"/>
<path d="M13.7147 23.3369C13.398 23.0151 13.2207 22.5752 13.2244 22.1121C13.2282 21.6485 13.4133 21.1998 13.7414 20.8664C14.0696 20.5331 14.5113 20.345 14.9676 20.3412C15.4235 20.3374 15.8565 20.5175 16.1733 20.8393C16.49 21.1611 16.6673 21.601 16.6636 22.0641C16.6598 22.5277 16.4747 22.9764 16.1466 23.3098C15.8184 23.6431 15.3767 23.8312 14.9204 23.835C14.4645 23.8388 14.0315 23.6587 13.7147 23.3369Z" fill="#2B4593" stroke="white" stroke-width="1.15208"/>
<path d="M12.4629 25.4092C12.1461 25.0874 11.9688 24.6474 11.9726 24.1843C11.9764 23.7208 12.1615 23.2721 12.4896 22.9387C12.8178 22.6053 13.2595 22.4173 13.7158 22.4135C14.1716 22.4097 14.6047 22.5898 14.9214 22.9116C15.2382 23.2334 15.4155 23.6733 15.4118 24.1364C15.408 24.6 15.2229 25.0487 14.8947 25.382C14.5666 25.7154 14.1249 25.9034 13.6686 25.9073C13.2127 25.9111 12.7797 25.731 12.4629 25.4092Z" fill="#2B4593" stroke="white" stroke-width="1.15208"/>
<path d="M10.3987 24.0493C10.0819 23.7275 9.90463 23.2876 9.90839 22.8245C9.91215 22.3609 10.0973 21.9122 10.4254 21.5788C10.7536 21.2455 11.1952 21.0574 11.6516 21.0536C12.1074 21.0498 12.5405 21.2299 12.8572 21.5517C13.174 21.8735 13.3513 22.3134 13.3475 22.7765C13.3438 23.2401 13.1587 23.6888 12.8305 24.0222C12.5024 24.3555 12.0607 24.5436 11.6044 24.5474C11.1485 24.5512 10.7155 24.3711 10.3987 24.0493Z" fill="#2B4593" stroke="white" stroke-width="1.15208"/>
<path d="M8.39809 22.7529C8.08132 22.4311 7.90402 21.9912 7.90778 21.5281C7.91154 21.0645 8.09665 20.6158 8.4248 20.2825C8.75295 19.9491 9.19463 19.7611 9.65095 19.7572C10.1068 19.7534 10.5399 19.9335 10.8566 20.2553C11.1734 20.5771 11.3507 21.017 11.3469 21.4802C11.3432 21.9437 11.1581 22.3924 10.8299 22.7258C10.5018 23.0591 10.0601 23.2472 9.60376 23.251C9.14789 23.2548 8.71486 23.0747 8.39809 22.7529Z" fill="#2B4593" stroke="white" stroke-width="1.15208"/>
<path d="M6.3976 21.4575C6.08083 21.1357 5.90353 20.6958 5.90729 20.2327C5.91105 19.7691 6.09616 19.3204 6.42431 18.9871C6.75246 18.6537 7.19415 18.4656 7.65046 18.4618C8.10633 18.458 8.53937 18.6381 8.85613 18.9599C9.1729 19.2817 9.35021 19.7216 9.34645 20.1847C9.34269 20.6483 9.15758 21.097 8.82943 21.4304C8.50128 21.7637 8.05959 21.9518 7.60328 21.9556C7.14741 21.9594 6.71437 21.7793 6.3976 21.4575Z" fill="#2B4593" stroke="white" stroke-width="1.15208"/>
<rect x="-0.478572" y="0.481844" width="6.56922" height="0.96037" transform="matrix(0.0033531 0.999994 -0.999994 0.00346046 13.399 26.0564)" fill="#2B4593" stroke="white" stroke-width="0.96037"/>
<rect x="10.1966" y="27.499" width="4.41747" height="0.939381" fill="#2B4593" stroke="white" stroke-width="0.939381"/>
</svg>
