<svg width="30" height="34" viewBox="0 0 30 34" fill="none" xmlns="http://www.w3.org/2000/svg">
<path d="M7.5415 4.80947C8.33882 4.34721 9.34887 4.59978 9.79752 5.37362L11.4216 8.17479C10.9739 7.40111 11.2566 6.3998 12.0535 5.93776C12.8509 5.4755 13.8609 5.72808 14.3096 6.50191L18.3699 13.5051C17.9233 12.7316 18.2062 11.7313 19.0026 11.2695C19.8 10.8072 20.81 11.0598 21.2587 11.8337L27.0805 21.8752C28.2769 23.9388 27.5232 26.6109 25.397 27.8436L18.6599 31.7496C16.5338 32.9823 13.8403 32.3088 12.6439 30.2453L3.94493 15.2413C3.49628 14.4674 3.77893 13.4654 4.57624 13.0031C5.373 12.5412 6.38222 12.7931 6.83133 13.5657L5.106 10.5898C4.65735 9.816 4.94 8.81395 5.73731 8.35168C6.52586 7.8945 7.52251 8.13653 7.97834 8.89051L7.97808 8.88952L6.91019 7.04763C6.46154 6.27379 6.74419 5.27174 7.5415 4.80947Z" fill="#2B4593"/>
<path d="M14.4773 20.664C14.3281 20.5124 14.2438 20.3045 14.2456 20.0842C14.2474 19.8634 14.3357 19.6483 14.4935 19.488C14.6512 19.3278 14.8629 19.2381 15.0803 19.2362C15.2972 19.2344 15.5018 19.32 15.651 19.4716C15.8002 19.6232 15.8845 19.831 15.8827 20.0514C15.8809 20.2722 15.7926 20.4873 15.6348 20.6475C15.4771 20.8078 15.2653 20.8975 15.048 20.8993C14.8311 20.9011 14.6265 20.8155 14.4773 20.664Z" fill="#2B4593" stroke="white" stroke-width="1.14893"/>
<path d="M15.7717 18.6609C15.6225 18.5094 15.5382 18.3015 15.54 18.0811C15.5418 17.8603 15.6301 17.6453 15.7879 17.485C15.9457 17.3247 16.1574 17.235 16.3747 17.2332C16.5916 17.2314 16.7963 17.317 16.9454 17.4685C17.0946 17.6201 17.1789 17.828 17.1771 18.0483C17.1753 18.2691 17.087 18.4842 16.9293 18.6445C16.7715 18.8048 16.5598 18.8945 16.3424 18.8963C16.1255 18.8981 15.9209 18.8125 15.7717 18.6609Z" fill="#2B4593" stroke="white" stroke-width="1.14893"/>
<path d="M17.0691 16.6585C16.9199 16.5069 16.8356 16.299 16.8374 16.0787C16.8392 15.8579 16.9275 15.6428 17.0852 15.4825C17.243 15.3223 17.4547 15.2326 17.6721 15.2308C17.889 15.2289 18.0936 15.3145 18.2428 15.4661C18.392 15.6177 18.4763 15.8256 18.4745 16.0459C18.4727 16.2667 18.3844 16.4818 18.2266 16.642C18.0689 16.8023 17.8571 16.892 17.6398 16.8938C17.4229 16.8956 17.2183 16.81 17.0691 16.6585Z" fill="#2B4593" stroke="white" stroke-width="1.14893"/>
<path d="M18.3625 14.6553C18.2133 14.5038 18.1291 14.2959 18.1309 14.0755C18.1326 13.8547 18.2209 13.6396 18.3787 13.4794C18.5365 13.3191 18.7482 13.2294 18.9655 13.2276C19.1824 13.2258 19.3871 13.3114 19.5363 13.4629C19.6855 13.6145 19.7697 13.8224 19.7679 14.0427C19.7661 14.2635 19.6779 14.4786 19.5201 14.6389C19.3623 14.7992 19.1506 14.8888 18.9333 14.8907C18.7164 14.8925 18.5117 14.8069 18.3625 14.6553Z" fill="#2B4593" stroke="white" stroke-width="1.14893"/>
<path d="M13.1653 22.6674C13.0161 22.5158 12.9318 22.3079 12.9336 22.0876C12.9354 21.8668 13.0237 21.6517 13.1814 21.4915C13.3392 21.3312 13.5509 21.2415 13.7683 21.2397C13.9852 21.2378 14.1898 21.3234 14.339 21.475C14.4882 21.6266 14.5725 21.8345 14.5707 22.0548C14.5689 22.2756 14.4806 22.4907 14.3228 22.651C14.165 22.8112 13.9533 22.9009 13.736 22.9027C13.5191 22.9046 13.3144 22.819 13.1653 22.6674Z" fill="#2B4593" stroke="white" stroke-width="1.14893"/>
<path d="M11.9187 24.7345C11.7695 24.583 11.6852 24.3751 11.687 24.1547C11.6888 23.9339 11.7771 23.7189 11.9349 23.5586C12.0926 23.3983 12.3043 23.3086 12.5217 23.3068C12.7386 23.305 12.9432 23.3906 13.0924 23.5421C13.2416 23.6937 13.3259 23.9016 13.3241 24.1219C13.3223 24.3427 13.234 24.5578 13.0762 24.7181C12.9185 24.8784 12.7068 24.9681 12.4894 24.9699C12.2725 24.9717 12.0679 24.8861 11.9187 24.7345Z" fill="#2B4593" stroke="white" stroke-width="1.14893"/>
<path d="M9.85617 23.3776C9.70698 23.226 9.62272 23.0182 9.62451 22.7978C9.6263 22.577 9.71458 22.3619 9.87236 22.2017C10.0301 22.0414 10.2418 21.9517 10.4592 21.9499C10.6761 21.9481 10.8807 22.0337 11.0299 22.1852C11.1791 22.3368 11.2634 22.5447 11.2616 22.765C11.2598 22.9858 11.1715 23.2009 11.0137 23.3612C10.856 23.5214 10.6443 23.6111 10.4269 23.6129C10.21 23.6148 10.0054 23.5292 9.85617 23.3776Z" fill="#2B4593" stroke="white" stroke-width="1.14893"/>
<path d="M7.86545 22.0854C7.71626 21.9338 7.632 21.7259 7.63378 21.5056C7.63558 21.2848 7.72386 21.0697 7.88163 20.9094C8.03941 20.7491 8.25112 20.6595 8.46846 20.6576C8.68536 20.6558 8.89 20.7414 9.0392 20.893C9.18839 21.0445 9.27265 21.2524 9.27086 21.4728C9.26907 21.6936 9.18078 21.9086 9.02301 22.0689C8.86524 22.2292 8.65353 22.3189 8.43618 22.3207C8.21928 22.3225 8.01464 22.2369 7.86545 22.0854Z" fill="#2B4593" stroke="white" stroke-width="1.14893"/>
<path d="M5.86887 20.7933C5.71968 20.6417 5.63541 20.4338 5.6372 20.2135C5.63899 19.9927 5.72728 19.7776 5.88505 19.6173C6.04282 19.457 6.25454 19.3673 6.47188 19.3655C6.68878 19.3637 6.89342 19.4493 7.04261 19.6009C7.19181 19.7524 7.27607 19.9603 7.27428 20.1807C7.27249 20.4015 7.1842 20.6165 7.02643 20.7768C6.86866 20.9371 6.65695 21.0268 6.4396 21.0286C6.2227 21.0304 6.01806 20.9448 5.86887 20.7933Z" fill="#2B4593" stroke="white" stroke-width="1.14893"/>
<rect x="-0.477263" y="0.480526" width="6.55125" height="0.957742" transform="matrix(0.0033531 0.999994 -0.999994 0.00346046 13.4809 26.0178)" fill="#2B4593" stroke="white" stroke-width="0.957742"/>
<rect x="10.2863" y="27.4574" width="4.40539" height="0.936811" fill="#2B4593" stroke="white" stroke-width="0.936811"/>
</svg>
