<svg width="47" height="55" viewBox="0 0 47 55" fill="none" xmlns="http://www.w3.org/2000/svg">
<path d="M11.876 7.06069C13.1648 6.31347 14.7975 6.72174 15.5227 7.97259L18.1479 12.5005C17.4241 11.2499 17.8812 9.63135 19.1694 8.88449C20.4582 8.13727 22.0909 8.54555 22.8161 9.7964L29.3793 21.1166C28.6575 19.8664 29.1147 18.2493 30.4021 17.5029C31.691 16.7557 33.3236 17.164 34.0489 18.4148L43.4595 34.6463C45.3934 37.9819 44.1751 42.3013 40.7383 44.2939L29.8482 50.6077C26.4114 52.6003 22.0576 51.5116 20.1237 48.176L6.06235 23.923C5.33714 22.6722 5.79402 21.0524 7.08282 20.3052C8.37074 19.5585 10.0021 19.9657 10.728 21.2145L7.93915 16.4043C7.21394 15.1534 7.67082 13.5337 8.95962 12.7864C10.2343 12.0474 11.8453 12.4387 12.5821 13.6574L12.5817 13.6558L10.8555 10.6785C10.1303 9.42766 10.5872 7.80791 11.876 7.06069Z" fill="#2B4593"/>
<path d="M23.0797 33.3631C22.8336 33.113 22.6945 32.77 22.6975 32.4064C22.7004 32.0421 22.8461 31.6872 23.1064 31.4227C23.3668 31.1583 23.7161 31.0103 24.0748 31.0073C24.4327 31.0043 24.7703 31.1455 25.0165 31.3956C25.2627 31.6457 25.4017 31.9887 25.3988 32.3523C25.3958 32.7166 25.2502 33.0715 24.9898 33.336C24.7295 33.6005 24.3801 33.7485 24.0215 33.7515C23.6636 33.7545 23.3259 33.6132 23.0797 33.3631Z" fill="#2B4593" stroke="white" stroke-width="1.89583"/>
<path d="M25.2174 30.0581C24.9713 29.808 24.8322 29.465 24.8352 29.1014C24.8381 28.737 24.9838 28.3821 25.2441 28.1177C25.5045 27.8532 25.8538 27.7052 26.2125 27.7022C26.5704 27.6992 26.908 27.8405 27.1542 28.0905C27.4004 28.3406 27.5394 28.6837 27.5365 29.0473C27.5335 29.4116 27.3879 29.7665 27.1275 30.031C26.8672 30.2954 26.5178 30.4434 26.1592 30.4464C25.8013 30.4494 25.4636 30.3082 25.2174 30.0581Z" fill="#2B4593" stroke="white" stroke-width="1.89583"/>
<path d="M27.3546 26.7536C27.1085 26.5035 26.9694 26.1605 26.9724 25.7969C26.9753 25.4326 27.121 25.0777 27.3814 24.8132C27.6417 24.5488 27.991 24.4008 28.3497 24.3978C28.7076 24.3948 29.0452 24.536 29.2914 24.7861C29.5376 25.0362 29.6766 25.3792 29.6737 25.7428C29.6707 26.1071 29.5251 26.462 29.2647 26.7265C29.0044 26.991 28.655 27.139 28.2964 27.142C27.9385 27.145 27.6008 27.0037 27.3546 26.7536Z" fill="#2B4593" stroke="white" stroke-width="1.89583"/>
<path d="M29.4923 23.4487C29.2462 23.1986 29.1071 22.8556 29.1101 22.492C29.113 22.1277 29.2587 21.7728 29.519 21.5083C29.7794 21.2438 30.1287 21.0958 30.4874 21.0928C30.8453 21.0898 31.1829 21.2311 31.4291 21.4812C31.6753 21.7313 31.8143 22.0743 31.8114 22.4379C31.8084 22.8022 31.6628 23.1571 31.4024 23.4216C31.1421 23.686 30.7927 23.834 30.4341 23.837C30.0762 23.84 29.7385 23.6988 29.4923 23.4487Z" fill="#2B4593" stroke="white" stroke-width="1.89583"/>
<path d="M20.9147 36.6687C20.6685 36.4186 20.5295 36.0756 20.5324 35.712C20.5354 35.3476 20.6811 34.9927 20.9414 34.7283C21.2017 34.4638 21.5511 34.3158 21.9097 34.3128C22.2676 34.3098 22.6053 34.451 22.8515 34.7011C23.0977 34.9512 23.2367 35.2943 23.2338 35.6578C23.2308 36.0222 23.0851 36.3771 22.8248 36.6415C22.5644 36.906 22.2151 37.054 21.8565 37.057C21.4986 37.06 21.1609 36.9188 20.9147 36.6687Z" fill="#2B4593" stroke="white" stroke-width="1.89583"/>
<path d="M18.8546 40.0796C18.6085 39.8295 18.4694 39.4864 18.4724 39.1229C18.4753 38.7585 18.621 38.4036 18.8814 38.1392C19.1417 37.8747 19.491 37.7267 19.8497 37.7237C20.2076 37.7207 20.5452 37.8619 20.7914 38.112C21.0376 38.3621 21.1766 38.7052 21.1737 39.0687C21.1707 39.4331 21.0251 39.788 20.7647 40.0524C20.5044 40.3169 20.155 40.4649 19.7964 40.4679C19.4385 40.4709 19.1008 40.3297 18.8546 40.0796Z" fill="#2B4593" stroke="white" stroke-width="1.89583"/>
<path d="M15.4577 37.8412C15.2115 37.5911 15.0725 37.248 15.0754 36.8844C15.0784 36.5201 15.224 36.1652 15.4844 35.9008C15.7447 35.6363 16.0941 35.4883 16.4527 35.4853C16.8106 35.4823 17.1483 35.6235 17.3945 35.8736C17.6406 36.1237 17.7797 36.4667 17.7767 36.8303C17.7738 37.1947 17.6281 37.5496 17.3677 37.814C17.1074 38.0785 16.7581 38.2265 16.3994 38.2295C16.0415 38.2325 15.7039 38.0913 15.4577 37.8412Z" fill="#2B4593" stroke="white" stroke-width="1.89583"/>
<path d="M12.1657 35.7086C11.9195 35.4585 11.7805 35.1155 11.7834 34.7519C11.7864 34.3875 11.932 34.0327 12.1924 33.7682C12.4527 33.5037 12.8021 33.3557 13.1607 33.3527C13.5186 33.3497 13.8563 33.491 14.1025 33.7411C14.3486 33.9911 14.4877 34.3342 14.4847 34.6978C14.4818 35.0621 14.3361 35.417 14.0758 35.6815C13.8154 35.9459 13.4661 36.0939 13.1074 36.0969C12.7495 36.0999 12.4119 35.9587 12.1657 35.7086Z" fill="#2B4593" stroke="white" stroke-width="1.89583"/>
<path d="M8.87369 33.5765C8.62751 33.3264 8.48847 32.9834 8.49142 32.6198C8.49438 32.2555 8.64006 31.9006 8.90039 31.6361C9.16073 31.3716 9.51007 31.2236 9.86871 31.2206C10.2266 31.2176 10.5643 31.3589 10.8105 31.609C11.0566 31.8591 11.1957 32.2021 11.1927 32.5657C11.1898 32.93 11.0441 33.2849 10.7838 33.5494C10.5234 33.8139 10.1741 33.9619 9.81544 33.9649C9.45754 33.9679 9.11987 33.8266 8.87369 33.5765Z" fill="#2B4593" stroke="white" stroke-width="1.89583"/>
<rect x="-0.787523" y="0.792907" width="10.8101" height="1.58035" transform="matrix(0.0033531 0.999994 -0.999994 0.00346046 21.4323 42.1979)" fill="#2B4593" stroke="white" stroke-width="1.58035"/>
<rect x="16.1626" y="44.5727" width="7.26925" height="1.54582" fill="#2B4593" stroke="white" stroke-width="1.54582"/>
</svg>
