<svg width="34" height="39" viewBox="0 0 34 39" fill="none" xmlns="http://www.w3.org/2000/svg">
<path d="M8.70273 5.74339C9.61075 5.21694 10.761 5.50459 11.272 6.38587L13.1216 9.57598C12.6117 8.69488 12.9337 7.55454 13.8413 7.02835C14.7493 6.5019 15.8996 6.78954 16.4105 7.67082L21.0346 15.6465C20.526 14.7656 20.8482 13.6263 21.7553 13.1004C22.6633 12.574 23.8136 12.8616 24.3245 13.7429L30.9548 25.1787C32.3173 27.5288 31.4589 30.572 29.0375 31.9759L21.365 36.4242C18.9436 37.8281 15.8761 37.0611 14.5136 34.711L4.60676 17.6237C4.09582 16.7424 4.41771 15.6012 5.32573 15.0747C6.23313 14.5487 7.38247 14.8355 7.89395 15.7154L5.92905 12.3264C5.41811 11.4451 5.74 10.3039 6.64802 9.77744C7.54606 9.25678 8.68109 9.53242 9.20022 10.3911L9.19993 10.39L7.98376 8.29232C7.47281 7.41103 7.79471 6.26984 8.70273 5.74339Z" fill="#2B4593"/>
<path d="M16.5961 24.2747C16.4226 24.0985 16.3247 23.8568 16.3268 23.6006C16.3288 23.3439 16.4315 23.0939 16.6149 22.9076C16.7983 22.7212 17.0444 22.617 17.2971 22.6148C17.5493 22.6127 17.7872 22.7122 17.9606 22.8884C18.1341 23.0646 18.232 23.3063 18.23 23.5625C18.2279 23.8192 18.1252 24.0692 17.9418 24.2555C17.7584 24.4419 17.5123 24.5461 17.2596 24.5483C17.0074 24.5504 16.7695 24.4509 16.5961 24.2747Z" fill="#2B4593" stroke="white" stroke-width="1.3357"/>
<path d="M18.1024 21.9461C17.929 21.7699 17.831 21.5283 17.8331 21.2721C17.8352 21.0154 17.9378 20.7654 18.1212 20.579C18.3047 20.3927 18.5508 20.2884 18.8035 20.2863C19.0556 20.2842 19.2935 20.3837 19.467 20.5599C19.6404 20.7361 19.7384 20.9778 19.7363 21.234C19.7342 21.4907 19.6316 21.7407 19.4482 21.927C19.2647 22.1134 19.0186 22.2176 18.7659 22.2197C18.5138 22.2219 18.2759 22.1223 18.1024 21.9461Z" fill="#2B4593" stroke="white" stroke-width="1.3357"/>
<path d="M19.6078 19.618C19.4344 19.4418 19.3364 19.2001 19.3385 18.944C19.3406 18.6873 19.4432 18.4372 19.6266 18.2509C19.81 18.0646 20.0562 17.9603 20.3088 17.9582C20.561 17.9561 20.7989 18.0556 20.9723 18.2318C21.1458 18.408 21.2438 18.6497 21.2417 18.9058C21.2396 19.1625 21.137 19.4126 20.9535 19.5989C20.7701 19.7852 20.524 19.8895 20.2713 19.8916C20.0191 19.8937 19.7812 19.7942 19.6078 19.618Z" fill="#2B4593" stroke="white" stroke-width="1.3357"/>
<path d="M21.1141 17.2895C20.9407 17.1133 20.8427 16.8716 20.8448 16.6154C20.8469 16.3587 20.9495 16.1087 21.133 15.9224C21.3164 15.736 21.5625 15.6318 21.8152 15.6297C22.0673 15.6275 22.3052 15.7271 22.4787 15.9033C22.6521 16.0795 22.7501 16.3211 22.748 16.5773C22.7459 16.834 22.6433 17.084 22.4599 17.2704C22.2765 17.4567 22.0303 17.561 21.7777 17.5631C21.5255 17.5652 21.2876 17.4657 21.1141 17.2895Z" fill="#2B4593" stroke="white" stroke-width="1.3357"/>
<path d="M15.0707 26.6036C14.8972 26.4274 14.7993 26.1857 14.8014 25.9295C14.8034 25.6728 14.9061 25.4228 15.0895 25.2365C15.2729 25.0501 15.519 24.9459 15.7717 24.9438C16.0239 24.9416 16.2618 25.0412 16.4352 25.2174C16.6087 25.3936 16.7066 25.6352 16.7046 25.8914C16.7025 26.1481 16.5998 26.3981 16.4164 26.5845C16.233 26.7708 15.9869 26.8751 15.7342 26.8772C15.482 26.8793 15.2441 26.7798 15.0707 26.6036Z" fill="#2B4593" stroke="white" stroke-width="1.3357"/>
<path d="M13.6195 29.0067C13.4461 28.8305 13.3481 28.5888 13.3502 28.3327C13.3523 28.076 13.4549 27.8259 13.6383 27.6396C13.8218 27.4533 14.0679 27.349 14.3206 27.3469C14.5727 27.3448 14.8106 27.4443 14.9841 27.6205C15.1575 27.7967 15.2555 28.0384 15.2534 28.2945C15.2513 28.5512 15.1487 28.8013 14.9652 28.9876C14.7818 29.1739 14.5357 29.2782 14.283 29.2803C14.0309 29.2824 13.793 29.1829 13.6195 29.0067Z" fill="#2B4593" stroke="white" stroke-width="1.3357"/>
<path d="M11.226 27.4296C11.0525 27.2534 10.9546 27.0117 10.9566 26.7556C10.9587 26.4989 11.0614 26.2488 11.2448 26.0625C11.4282 25.8762 11.6743 25.7719 11.927 25.7698C12.1792 25.7677 12.4171 25.8672 12.5905 26.0434C12.764 26.2196 12.8619 26.4613 12.8598 26.7174C12.8578 26.9741 12.7551 27.2242 12.5717 27.4105C12.3883 27.5968 12.1421 27.7011 11.8895 27.7032C11.6373 27.7053 11.3994 27.6058 11.226 27.4296Z" fill="#2B4593" stroke="white" stroke-width="1.3357"/>
<path d="M8.90662 25.9271C8.73318 25.7509 8.63522 25.5092 8.6373 25.2531C8.63938 24.9964 8.74202 24.7464 8.92544 24.56C9.10886 24.3737 9.35499 24.2694 9.60766 24.2673C9.85982 24.2652 10.0977 24.3647 10.2712 24.5409C10.4446 24.7171 10.5426 24.9588 10.5405 25.215C10.5384 25.4716 10.4358 25.7217 10.2524 25.908C10.0689 26.0943 9.82281 26.1986 9.57013 26.2007C9.31798 26.2028 9.08007 26.1033 8.90662 25.9271Z" fill="#2B4593" stroke="white" stroke-width="1.3357"/>
<path d="M6.58729 24.425C6.41384 24.2488 6.31588 24.0071 6.31796 23.751C6.32005 23.4943 6.42268 23.2443 6.6061 23.0579C6.78952 22.8716 7.03565 22.7673 7.28833 22.7652C7.54049 22.7631 7.77839 22.8626 7.95184 23.0388C8.12528 23.215 8.22324 23.4567 8.22116 23.7129C8.21908 23.9695 8.11644 24.2196 7.93302 24.4059C7.7496 24.5922 7.50348 24.6965 7.2508 24.6986C6.99864 24.7007 6.76073 24.6012 6.58729 24.425Z" fill="#2B4593" stroke="white" stroke-width="1.3357"/>
<rect x="-0.554846" y="0.558639" width="7.61622" height="1.11343" transform="matrix(0.0033531 0.999994 -0.999994 0.00346046 15.4353 30.4992)" fill="#2B4593" stroke="white" stroke-width="1.11343"/>
<rect x="11.7228" y="32.1723" width="5.12152" height="1.0891" fill="#2B4593" stroke="white" stroke-width="1.0891"/>
</svg>
