<svg width="30" height="35" viewBox="0 0 30 35" fill="none" xmlns="http://www.w3.org/2000/svg">
<path d="M7.5415 4.97549C8.33882 4.51322 9.34887 4.7658 9.79752 5.53963L11.4216 8.3408C10.9739 7.56712 11.2566 6.56582 12.0535 6.10378C12.8509 5.64151 13.8609 5.89409 14.3096 6.66792L18.3699 13.6711C17.9233 12.8977 18.2062 11.8973 19.0026 11.4355C19.8 10.9733 20.81 11.2258 21.2587 11.9997L27.0805 22.0412C28.2769 24.1048 27.5232 26.7769 25.397 28.0096L18.6599 31.9157C16.5338 33.1484 13.8403 32.4748 12.6439 30.4113L3.94493 15.4073C3.49628 14.6335 3.77893 13.6314 4.57624 13.1691C5.373 12.7072 6.38222 12.9591 6.83133 13.7317L5.106 10.7558C4.65735 9.98202 4.94 8.97996 5.73731 8.5177C6.52586 8.06051 7.52251 8.30255 7.97834 9.05652L7.97808 9.05553L6.91019 7.21364C6.46154 6.43981 6.74419 5.43775 7.5415 4.97549Z" fill="#2B4593"/>
<path d="M14.4773 20.8298C14.3281 20.6782 14.2438 20.4703 14.2456 20.25C14.2474 20.0292 14.3357 19.8141 14.4935 19.6538C14.6512 19.4935 14.8629 19.4038 15.0803 19.402C15.2972 19.4002 15.5018 19.4858 15.651 19.6374C15.8002 19.7889 15.8845 19.9968 15.8827 20.2172C15.8809 20.438 15.7926 20.653 15.6348 20.8133C15.4771 20.9736 15.2653 21.0633 15.048 21.0651C14.8311 21.0669 14.6265 20.9813 14.4773 20.8298Z" fill="#2B4593" stroke="white" stroke-width="1.14893"/>
<path d="M15.7717 18.8271C15.6225 18.6755 15.5382 18.4676 15.54 18.2473C15.5418 18.0265 15.6301 17.8114 15.7879 17.6511C15.9457 17.4908 16.1574 17.4012 16.3747 17.3993C16.5916 17.3975 16.7963 17.4831 16.9454 17.6347C17.0946 17.7862 17.1789 17.9941 17.1771 18.2145C17.1753 18.4353 17.087 18.6503 16.9293 18.8106C16.7715 18.9709 16.5598 19.0606 16.3424 19.0624C16.1255 19.0642 15.9209 18.9786 15.7717 18.8271Z" fill="#2B4593" stroke="white" stroke-width="1.14893"/>
<path d="M17.0691 16.8244C16.9199 16.6728 16.8356 16.4649 16.8374 16.2446C16.8392 16.0238 16.9275 15.8087 17.0852 15.6484C17.243 15.4882 17.4547 15.3985 17.6721 15.3966C17.889 15.3948 18.0936 15.4804 18.2428 15.632C18.392 15.7836 18.4763 15.9914 18.4745 16.2118C18.4727 16.4326 18.3844 16.6477 18.2266 16.8079C18.0689 16.9682 17.8571 17.0579 17.6398 17.0597C17.4229 17.0615 17.2183 16.9759 17.0691 16.8244Z" fill="#2B4593" stroke="white" stroke-width="1.14893"/>
<path d="M18.3625 14.8215C18.2133 14.6699 18.1291 14.462 18.1309 14.2417C18.1326 14.0209 18.2209 13.8058 18.3787 13.6455C18.5365 13.4852 18.7482 13.3955 18.9655 13.3937C19.1824 13.3919 19.3871 13.4775 19.5363 13.6291C19.6855 13.7806 19.7697 13.9885 19.7679 14.2089C19.7661 14.4297 19.6779 14.6447 19.5201 14.805C19.3623 14.9653 19.1506 15.055 18.9333 15.0568C18.7164 15.0586 18.5117 14.973 18.3625 14.8215Z" fill="#2B4593" stroke="white" stroke-width="1.14893"/>
<path d="M13.1653 22.8334C13.0161 22.6819 12.9318 22.474 12.9336 22.2536C12.9354 22.0328 13.0237 21.8177 13.1814 21.6575C13.3392 21.4972 13.5509 21.4075 13.7683 21.4057C13.9852 21.4039 14.1898 21.4895 14.339 21.641C14.4882 21.7926 14.5725 22.0005 14.5707 22.2208C14.5689 22.4416 14.4806 22.6567 14.3228 22.817C14.165 22.9773 13.9533 23.0669 13.736 23.0688C13.5191 23.0706 13.3144 22.985 13.1653 22.8334Z" fill="#2B4593" stroke="white" stroke-width="1.14893"/>
<path d="M11.9187 24.9001C11.7695 24.7485 11.6852 24.5406 11.687 24.3203C11.6888 24.0995 11.7771 23.8844 11.9349 23.7241C12.0926 23.5638 12.3043 23.4742 12.5217 23.4723C12.7386 23.4705 12.9432 23.5561 13.0924 23.7077C13.2416 23.8592 13.3259 24.0671 13.3241 24.2875C13.3223 24.5083 13.234 24.7233 13.0762 24.8836C12.9185 25.0439 12.7068 25.1336 12.4894 25.1354C12.2725 25.1372 12.0679 25.0516 11.9187 24.9001Z" fill="#2B4593" stroke="white" stroke-width="1.14893"/>
<path d="M9.85617 23.5436C9.70698 23.3921 9.62272 23.1842 9.62451 22.9638C9.6263 22.743 9.71458 22.528 9.87236 22.3677C10.0301 22.2074 10.2418 22.1177 10.4592 22.1159C10.6761 22.1141 10.8807 22.1997 11.0299 22.3512C11.1791 22.5028 11.2634 22.7107 11.2616 22.931C11.2598 23.1518 11.1715 23.3669 11.0137 23.5272C10.856 23.6875 10.6443 23.7771 10.4269 23.779C10.21 23.7808 10.0054 23.6952 9.85617 23.5436Z" fill="#2B4593" stroke="white" stroke-width="1.14893"/>
<path d="M7.86545 22.2511C7.71626 22.0996 7.632 21.8917 7.63378 21.6713C7.63558 21.4505 7.72386 21.2355 7.88163 21.0752C8.03941 20.9149 8.25112 20.8252 8.46846 20.8234C8.68536 20.8216 8.89 20.9072 9.0392 21.0588C9.18839 21.2103 9.27265 21.4182 9.27086 21.6385C9.26907 21.8593 9.18078 22.0744 9.02301 22.2347C8.86524 22.395 8.65353 22.4847 8.43618 22.4865C8.21928 22.4883 8.01464 22.4027 7.86545 22.2511Z" fill="#2B4593" stroke="white" stroke-width="1.14893"/>
<path d="M5.86887 20.9591C5.71968 20.8076 5.63541 20.5997 5.6372 20.3794C5.63899 20.1586 5.72728 19.9435 5.88505 19.7832C6.04282 19.6229 6.25454 19.5332 6.47188 19.5314C6.68878 19.5296 6.89342 19.6152 7.04261 19.7668C7.19181 19.9183 7.27607 20.1262 7.27428 20.3466C7.27249 20.5674 7.1842 20.7824 7.02643 20.9427C6.86866 21.103 6.65695 21.1927 6.4396 21.1945C6.2227 21.1963 6.01806 21.1107 5.86887 20.9591Z" fill="#2B4593" stroke="white" stroke-width="1.14893"/>
<rect x="-0.477263" y="0.480526" width="6.55125" height="0.957742" transform="matrix(0.0033531 0.999994 -0.999994 0.00346046 13.4809 26.184)" fill="#2B4593" stroke="white" stroke-width="0.957742"/>
<rect x="10.2863" y="27.6231" width="4.40539" height="0.936811" fill="#2B4593" stroke="white" stroke-width="0.936811"/>
</svg>
