<svg width="30" height="34" viewBox="0 0 30 34" fill="none" xmlns="http://www.w3.org/2000/svg">
<path d="M7.5415 4.47585C8.33882 4.01359 9.34887 4.26617 9.79752 5.04L11.4216 7.84117C10.9739 7.06749 11.2566 6.06618 12.0535 5.60414C12.8509 5.14188 13.8609 5.39446 14.3096 6.16829L18.3699 13.1715C17.9233 12.398 18.2062 11.3976 19.0026 10.9359C19.8 10.4736 20.81 10.7262 21.2587 11.5L27.0805 21.5416C28.2769 23.6052 27.5232 26.2773 25.397 27.51L18.6599 31.416C16.5338 32.6487 13.8403 31.9752 12.6439 29.9116L3.94493 14.9077C3.49628 14.1338 3.77893 13.1318 4.57624 12.6695C5.373 12.2076 6.38222 12.4595 6.83133 13.2321L5.106 10.2562C4.65735 9.48238 4.94 8.48033 5.73731 8.01806C6.52586 7.56088 7.52251 7.80291 7.97834 8.55689L7.97808 8.5559L6.91019 6.71401C6.46154 5.94017 6.74419 4.93812 7.5415 4.47585Z" fill="#2B4593"/>
<path d="M14.4773 20.3302C14.3281 20.1787 14.2438 19.9708 14.2456 19.7504C14.2474 19.5296 14.3357 19.3146 14.4935 19.1543C14.6512 18.994 14.8629 18.9043 15.0803 18.9025C15.2972 18.9007 15.5018 18.9863 15.651 19.1379C15.8002 19.2894 15.8845 19.4973 15.8827 19.7176C15.8809 19.9384 15.7926 20.1535 15.6348 20.3138C15.4771 20.4741 15.2653 20.5638 15.048 20.5656C14.8311 20.5674 14.6265 20.4818 14.4773 20.3302Z" fill="#2B4593" stroke="white" stroke-width="1.14893"/>
<path d="M15.7717 18.3274C15.6225 18.1759 15.5382 17.968 15.54 17.7476C15.5418 17.5268 15.6301 17.3118 15.7879 17.1515C15.9457 16.9912 16.1574 16.9015 16.3747 16.8997C16.5916 16.8979 16.7963 16.9835 16.9454 17.135C17.0946 17.2866 17.1789 17.4945 17.1771 17.7148C17.1753 17.9356 17.087 18.1507 16.9293 18.311C16.7715 18.4713 16.5598 18.561 16.3424 18.5628C16.1255 18.5646 15.9209 18.479 15.7717 18.3274Z" fill="#2B4593" stroke="white" stroke-width="1.14893"/>
<path d="M17.0691 16.3247C16.9199 16.1732 16.8356 15.9653 16.8374 15.745C16.8392 15.5242 16.9275 15.3091 17.0852 15.1488C17.243 14.9885 17.4547 14.8988 17.6721 14.897C17.889 14.8952 18.0936 14.9808 18.2428 15.1324C18.392 15.2839 18.4763 15.4918 18.4745 15.7122C18.4727 15.933 18.3844 16.148 18.2266 16.3083C18.0689 16.4686 17.8571 16.5583 17.6398 16.5601C17.4229 16.5619 17.2183 16.4763 17.0691 16.3247Z" fill="#2B4593" stroke="white" stroke-width="1.14893"/>
<path d="M18.3625 14.3218C18.2133 14.1703 18.1291 13.9624 18.1309 13.742C18.1326 13.5212 18.2209 13.3061 18.3787 13.1459C18.5365 12.9856 18.7482 12.8959 18.9655 12.8941C19.1824 12.8923 19.3871 12.9779 19.5363 13.1294C19.6855 13.281 19.7697 13.4889 19.7679 13.7092C19.7661 13.93 19.6779 14.1451 19.5201 14.3054C19.3623 14.4657 19.1506 14.5553 18.9333 14.5572C18.7164 14.559 18.5117 14.4734 18.3625 14.3218Z" fill="#2B4593" stroke="white" stroke-width="1.14893"/>
<path d="M13.1653 22.3335C13.0161 22.182 12.9318 21.9741 12.9336 21.7537C12.9354 21.5329 13.0237 21.3179 13.1814 21.1576C13.3392 20.9973 13.5509 20.9076 13.7683 20.9058C13.9852 20.904 14.1898 20.9896 14.339 21.1411C14.4882 21.2927 14.5725 21.5006 14.5707 21.7209C14.5689 21.9417 14.4806 22.1568 14.3228 22.3171C14.165 22.4774 13.9533 22.5671 13.736 22.5689C13.5191 22.5707 13.3144 22.4851 13.1653 22.3335Z" fill="#2B4593" stroke="white" stroke-width="1.14893"/>
<path d="M11.9187 24.4008C11.7695 24.2492 11.6852 24.0413 11.687 23.821C11.6888 23.6002 11.7771 23.3851 11.9349 23.2249C12.0926 23.0646 12.3043 22.9749 12.5217 22.9731C12.7386 22.9712 12.9432 23.0568 13.0924 23.2084C13.2416 23.36 13.3259 23.5679 13.3241 23.7882C13.3223 24.009 13.234 24.2241 13.0762 24.3844C12.9185 24.5446 12.7068 24.6343 12.4894 24.6361C12.2725 24.638 12.0679 24.5524 11.9187 24.4008Z" fill="#2B4593" stroke="white" stroke-width="1.14893"/>
<path d="M9.85617 23.044C9.70698 22.8924 9.62272 22.6845 9.62451 22.4642C9.6263 22.2434 9.71458 22.0283 9.87236 21.868C10.0301 21.7078 10.2418 21.6181 10.4592 21.6163C10.6761 21.6144 10.8807 21.7 11.0299 21.8516C11.1791 22.0032 11.2634 22.2111 11.2616 22.4314C11.2598 22.6522 11.1715 22.8673 11.0137 23.0275C10.856 23.1878 10.6443 23.2775 10.4269 23.2793C10.21 23.2811 10.0054 23.1955 9.85617 23.044Z" fill="#2B4593" stroke="white" stroke-width="1.14893"/>
<path d="M7.86545 21.7515C7.71626 21.5999 7.632 21.3921 7.63378 21.1717C7.63558 20.9509 7.72386 20.7358 7.88163 20.5756C8.03941 20.4153 8.25112 20.3256 8.46846 20.3238C8.68536 20.322 8.89 20.4076 9.0392 20.5591C9.18839 20.7107 9.27265 20.9186 9.27086 21.1389C9.26907 21.3597 9.18078 21.5748 9.02301 21.7351C8.86524 21.8953 8.65353 21.985 8.43618 21.9869C8.21928 21.9887 8.01464 21.9031 7.86545 21.7515Z" fill="#2B4593" stroke="white" stroke-width="1.14893"/>
<path d="M5.86887 20.4595C5.71968 20.308 5.63541 20.1001 5.6372 19.8797C5.63899 19.6589 5.72728 19.4438 5.88505 19.2836C6.04282 19.1233 6.25454 19.0336 6.47188 19.0318C6.68878 19.03 6.89342 19.1156 7.04261 19.2671C7.19181 19.4187 7.27607 19.6266 7.27428 19.8469C7.27249 20.0677 7.1842 20.2828 7.02643 20.4431C6.86866 20.6034 6.65695 20.693 6.4396 20.6949C6.2227 20.6967 6.01806 20.6111 5.86887 20.4595Z" fill="#2B4593" stroke="white" stroke-width="1.14893"/>
<rect x="-0.477263" y="0.480526" width="6.55125" height="0.957742" transform="matrix(0.0033531 0.999994 -0.999994 0.00346046 13.4809 25.6844)" fill="#2B4593" stroke="white" stroke-width="0.957742"/>
<rect x="10.2863" y="27.1238" width="4.40539" height="0.936811" fill="#2B4593" stroke="white" stroke-width="0.936811"/>
</svg>
