<svg width="29" height="34" viewBox="0 0 29 34" fill="none" xmlns="http://www.w3.org/2000/svg">
<path d="M7.4672 4.98364C8.24792 4.531 9.23695 4.77832 9.67626 5.53605L11.2665 8.27891C10.8281 7.52134 11.105 6.54087 11.8853 6.08845C12.666 5.63581 13.6551 5.88313 14.0944 6.64085L18.0702 13.4983C17.6329 12.7409 17.9099 11.7614 18.6898 11.3092C19.4705 10.8566 20.4595 11.1039 20.8988 11.8616L26.5995 21.6942C27.771 23.7148 27.033 26.3313 24.9511 27.5384L18.3542 31.3631C16.2723 32.5701 13.6349 31.9106 12.4634 29.89L3.94549 15.1983C3.50617 14.4406 3.78294 13.4594 4.56366 13.0068C5.34384 12.5544 6.33205 12.8011 6.77181 13.5576L5.0824 10.6437C4.64308 9.88597 4.91985 8.90477 5.70056 8.45212C6.4727 8.00446 7.4486 8.24145 7.89495 8.97973L7.8947 8.97877L6.84903 7.17521C6.40972 6.41748 6.68649 5.43628 7.4672 4.98364Z" fill="#2B4593"/>
<path d="M14.2538 20.9174C14.1046 20.7659 14.0204 20.5581 14.0222 20.3378C14.024 20.1171 14.1122 19.9022 14.27 19.742C14.4277 19.5817 14.6393 19.4921 14.8565 19.4903C15.0733 19.4885 15.2779 19.574 15.427 19.7255C15.5761 19.877 15.6604 20.0848 15.6586 20.3051C15.6568 20.5258 15.5685 20.7408 15.4108 20.901C15.2531 21.0612 15.0415 21.1508 14.8243 21.1526C14.6075 21.1545 14.4029 21.0689 14.2538 20.9174Z" fill="#2B4593" stroke="white" stroke-width="1.14844"/>
<path d="M15.5487 18.915C15.3996 18.7635 15.3153 18.5557 15.3171 18.3354C15.3189 18.1147 15.4072 17.8997 15.5649 17.7395C15.7226 17.5793 15.9342 17.4897 16.1515 17.4878C16.3683 17.486 16.5728 17.5716 16.7219 17.7231C16.8711 17.8746 16.9553 18.0824 16.9535 18.3026C16.9517 18.5233 16.8635 18.7383 16.7058 18.8985C16.5481 19.0587 16.3364 19.1484 16.1192 19.1502C15.9024 19.152 15.6978 19.0664 15.5487 18.915Z" fill="#2B4593" stroke="white" stroke-width="1.14844"/>
<path d="M16.844 16.9135C16.6949 16.762 16.6106 16.5542 16.6124 16.3339C16.6142 16.1132 16.7025 15.8983 16.8602 15.738C17.0179 15.5778 17.2295 15.4882 17.4467 15.4864C17.6635 15.4846 17.8681 15.5701 18.0172 15.7216C18.1664 15.8731 18.2506 16.0809 18.2488 16.3012C18.247 16.5219 18.1588 16.7368 18.001 16.8971C17.8433 17.0573 17.6317 17.1469 17.4145 17.1487C17.1977 17.1505 16.9931 17.065 16.844 16.9135Z" fill="#2B4593" stroke="white" stroke-width="1.14844"/>
<path d="M18.1389 14.9115C17.9898 14.76 17.9056 14.5522 17.9073 14.332C17.9091 14.1113 17.9974 13.8963 18.1551 13.7361C18.3128 13.5759 18.5244 13.4862 18.7417 13.4844C18.9585 13.4826 19.163 13.5682 19.3121 13.7197C19.4613 13.8712 19.5455 14.079 19.5437 14.2992C19.5419 14.5199 19.4537 14.7349 19.296 14.8951C19.1383 15.0553 18.9266 15.145 18.7094 15.1468C18.4926 15.1486 18.288 15.063 18.1389 14.9115Z" fill="#2B4593" stroke="white" stroke-width="1.14844"/>
<path d="M12.9426 22.9203C12.7935 22.7688 12.7093 22.561 12.7111 22.3408C12.7128 22.1201 12.8011 21.9051 12.9588 21.7449C13.1165 21.5847 13.3281 21.495 13.5454 21.4932C13.7622 21.4914 13.9667 21.577 14.1159 21.7284C14.265 21.8799 14.3492 22.0877 14.3474 22.308C14.3456 22.5287 14.2574 22.7437 14.0997 22.9039C13.942 23.0641 13.7304 23.1537 13.5131 23.1556C13.2963 23.1574 13.0917 23.0718 12.9426 22.9203Z" fill="#2B4593" stroke="white" stroke-width="1.14844"/>
<path d="M11.6947 24.9862C11.5456 24.8347 11.4613 24.6269 11.4631 24.4067C11.4649 24.186 11.5532 23.971 11.7109 23.8108C11.8686 23.6506 12.0802 23.5609 12.2974 23.5591C12.5143 23.5573 12.7188 23.6429 12.8679 23.7944C13.0171 23.9459 13.1013 24.1537 13.0995 24.3739C13.0977 24.5946 13.0095 24.8096 12.8518 24.9698C12.6941 25.13 12.4824 25.2197 12.2652 25.2215C12.0484 25.2233 11.8438 25.1377 11.6947 24.9862Z" fill="#2B4593" stroke="white" stroke-width="1.14844"/>
<path d="M9.63683 23.6298C9.4877 23.4783 9.40348 23.2705 9.40526 23.0502C9.40705 22.8295 9.4953 22.6146 9.65301 22.4544C9.81071 22.2941 10.0223 22.2045 10.2396 22.2027C10.4564 22.2009 10.6609 22.2864 10.8101 22.4379C10.9592 22.5894 11.0434 22.7972 11.0416 23.0175C11.0398 23.2382 10.9516 23.4532 10.7939 23.6134C10.6362 23.7736 10.4246 23.8632 10.2073 23.865C9.99051 23.8669 9.78596 23.7813 9.63683 23.6298Z" fill="#2B4593" stroke="white" stroke-width="1.14844"/>
<path d="M7.64281 22.3383C7.49368 22.1868 7.40946 21.979 7.41125 21.7587C7.41304 21.538 7.50128 21.3231 7.65899 21.1629C7.81669 21.0026 8.02831 20.913 8.24557 20.9112C8.46237 20.9094 8.66693 20.9949 8.81605 21.1464C8.96518 21.2979 9.04941 21.5057 9.04762 21.726C9.04583 21.9467 8.95758 22.1616 8.79988 22.3219C8.64217 22.4821 8.43055 22.5717 8.2133 22.5735C7.99649 22.5754 7.79194 22.4898 7.64281 22.3383Z" fill="#2B4593" stroke="white" stroke-width="1.14844"/>
<path d="M5.64855 21.0463C5.49942 20.8948 5.4152 20.687 5.41698 20.4668C5.41877 20.2461 5.50702 20.0311 5.66473 19.8709C5.82243 19.7106 6.03405 19.621 6.2513 19.6192C6.46811 19.6174 6.67266 19.7029 6.82179 19.8544C6.97092 20.0059 7.05514 20.2137 7.05336 20.434C7.05157 20.6547 6.96332 20.8697 6.80561 21.0299C6.64791 21.1901 6.43629 21.2797 6.21904 21.2815C6.00223 21.2834 5.79768 21.1978 5.64855 21.0463Z" fill="#2B4593" stroke="white" stroke-width="1.14844"/>
<rect x="-0.477057" y="0.480319" width="6.54843" height="0.95733" transform="matrix(0.0033531 0.999994 -0.999994 0.00346046 13.2561 26.2692)" fill="#2B4593" stroke="white" stroke-width="0.95733"/>
<rect x="10.0639" y="27.7075" width="4.40349" height="0.936408" fill="#2B4593" stroke="white" stroke-width="0.936408"/>
</svg>
