<svg width="29" height="38" viewBox="0 0 29 38" fill="none" xmlns="http://www.w3.org/2000/svg">
<path d="M7.55656 4.70813C8.3436 4.25182 9.34064 4.50115 9.78351 5.26501L11.3867 8.0301C10.9447 7.26639 11.2238 6.27798 12.0105 5.82189C12.7975 5.36558 13.7946 5.61491 14.2374 6.37877L18.2454 13.2918C17.8046 12.5283 18.0839 11.5408 18.8701 11.085C19.6571 10.6286 20.6542 10.878 21.097 11.6418L26.8439 21.5541C28.0249 23.591 27.2809 26.2288 25.1821 27.4456L18.5318 31.3013C16.433 32.5181 13.7742 31.8533 12.5932 29.8163L4.00631 15.0056C3.56344 14.2417 3.84244 13.2526 4.62948 12.7963C5.41599 12.3403 6.4122 12.5889 6.85553 13.3516L5.15243 10.414C4.70955 9.65018 4.98856 8.66103 5.7756 8.20472C6.554 7.75342 7.5378 7.99234 7.98776 8.7366L7.98751 8.73563L6.93338 6.91746C6.49051 6.15359 6.76951 5.16444 7.55656 4.70813Z" fill="#2B4593"/>
<path d="M15.0304 21.3125C14.7136 20.9907 14.5363 20.5508 14.5401 20.0877C14.5439 19.6241 14.729 19.1754 15.0571 18.842C15.3853 18.5087 15.827 18.3206 16.2833 18.3168C16.7391 18.313 17.1722 18.4931 17.4889 18.8149C17.8057 19.1367 17.983 19.5766 17.9793 20.0397C17.9755 20.5033 17.7904 20.952 17.4622 21.2853C17.1341 21.6187 16.6924 21.8068 16.2361 21.8106C15.7802 21.8144 15.3472 21.6343 15.0304 21.3125Z" fill="#2B4593" stroke="white" stroke-width="1.15208"/>
<path d="M16.3296 19.3042C16.0128 18.9824 15.8355 18.5425 15.8393 18.0794C15.8431 17.6158 16.0282 17.1671 16.3563 16.8337C16.6845 16.5004 17.1262 16.3123 17.5825 16.3085C18.0383 16.3047 18.4714 16.4848 18.7881 16.8066C19.1049 17.1284 19.2822 17.5683 19.2785 18.0314C19.2747 18.495 19.0896 18.9437 18.7614 19.277C18.4333 19.6104 17.9916 19.7985 17.5353 19.8023C17.0794 19.8061 16.6464 19.626 16.3296 19.3042Z" fill="#2B4593" stroke="white" stroke-width="1.15208"/>
<path d="M17.6286 17.2964C17.3118 16.9746 17.1345 16.5347 17.1382 16.0715C17.142 15.608 17.3271 15.1593 17.6553 14.8259C17.9834 14.4926 18.4251 14.3045 18.8814 14.3007C19.3373 14.2969 19.7703 14.477 20.0871 14.7988C20.4039 15.1206 20.5812 15.5605 20.5774 16.0236C20.5736 16.4872 20.3885 16.9359 20.0604 17.2692C19.7322 17.6026 19.2905 17.7906 18.8342 17.7945C18.3784 17.7983 17.9453 17.6182 17.6286 17.2964Z" fill="#2B4593" stroke="white" stroke-width="1.15208"/>
<path d="M18.9274 15.2881C18.6106 14.9663 18.4333 14.5264 18.4371 14.0632C18.4408 13.5997 18.6259 13.151 18.9541 12.8176C19.2822 12.4843 19.7239 12.2962 20.1802 12.2924C20.6361 12.2886 21.0692 12.4687 21.3859 12.7905C21.7027 13.1123 21.88 13.5522 21.8762 14.0153C21.8725 14.4789 21.6874 14.9276 21.3592 15.2609C21.0311 15.5943 20.5894 15.7823 20.1331 15.7862C19.6772 15.79 19.2442 15.6099 18.9274 15.2881Z" fill="#2B4593" stroke="white" stroke-width="1.15208"/>
<path d="M13.7147 23.3218C13.398 23 13.2207 22.56 13.2244 22.0969C13.2282 21.6334 13.4133 21.1847 13.7414 20.8513C14.0696 20.5179 14.5113 20.3299 14.9676 20.3261C15.4235 20.3223 15.8565 20.5024 16.1733 20.8242C16.49 21.146 16.6673 21.5859 16.6636 22.049C16.6598 22.5126 16.4747 22.9613 16.1466 23.2946C15.8184 23.628 15.3767 23.816 14.9204 23.8199C14.4645 23.8237 14.0315 23.6436 13.7147 23.3218Z" fill="#2B4593" stroke="white" stroke-width="1.15208"/>
<path d="M12.4629 25.394C12.1461 25.0722 11.9688 24.6323 11.9726 24.1692C11.9764 23.7056 12.1615 23.2569 12.4896 22.9236C12.8178 22.5902 13.2595 22.4022 13.7158 22.3983C14.1716 22.3945 14.6047 22.5746 14.9214 22.8964C15.2382 23.2182 15.4155 23.6582 15.4118 24.1213C15.408 24.5848 15.2229 25.0335 14.8947 25.3669C14.5666 25.7003 14.1249 25.8883 13.6686 25.8921C13.2127 25.8959 12.7797 25.7158 12.4629 25.394Z" fill="#2B4593" stroke="white" stroke-width="1.15208"/>
<path d="M10.3987 24.0342C10.0819 23.7124 9.90463 23.2724 9.90839 22.8093C9.91215 22.3458 10.0973 21.8971 10.4254 21.5637C10.7536 21.2303 11.1952 21.0423 11.6516 21.0385C12.1074 21.0347 12.5405 21.2148 12.8572 21.5366C13.174 21.8584 13.3513 22.2983 13.3475 22.7614C13.3438 23.225 13.1587 23.6737 12.8305 24.007C12.5024 24.3404 12.0607 24.5284 11.6044 24.5323C11.1485 24.5361 10.7155 24.356 10.3987 24.0342Z" fill="#2B4593" stroke="white" stroke-width="1.15208"/>
<path d="M8.39809 22.7378C8.08132 22.416 7.90402 21.9761 7.90778 21.513C7.91154 21.0494 8.09665 20.6007 8.4248 20.2673C8.75295 19.934 9.19463 19.7459 9.65095 19.7421C10.1068 19.7383 10.5399 19.9184 10.8566 20.2402C11.1734 20.562 11.3507 21.0019 11.3469 21.465C11.3432 21.9286 11.1581 22.3773 10.8299 22.7106C10.5018 23.044 10.0601 23.2321 9.60376 23.2359C9.14789 23.2397 8.71486 23.0596 8.39809 22.7378Z" fill="#2B4593" stroke="white" stroke-width="1.15208"/>
<path d="M6.3976 21.4424C6.08083 21.1206 5.90353 20.6807 5.90729 20.2175C5.91105 19.754 6.09616 19.3053 6.42431 18.9719C6.75246 18.6386 7.19415 18.4505 7.65046 18.4467C8.10633 18.4429 8.53937 18.623 8.85613 18.9448C9.1729 19.2666 9.35021 19.7065 9.34645 20.1696C9.34269 20.6332 9.15758 21.0819 8.82943 21.4152C8.50128 21.7486 8.05959 21.9366 7.60328 21.9405C7.14741 21.9443 6.71437 21.7642 6.3976 21.4424Z" fill="#2B4593" stroke="white" stroke-width="1.15208"/>
<rect x="-0.478572" y="0.481844" width="6.56922" height="0.96037" transform="matrix(0.0033531 0.999994 -0.999994 0.00346046 13.399 26.0413)" fill="#2B4593" stroke="white" stroke-width="0.96037"/>
<rect x="10.1966" y="27.4843" width="4.41747" height="0.939381" fill="#2B4593" stroke="white" stroke-width="0.939381"/>
</svg>
