<svg width="29" height="34" viewBox="0 0 29 34" fill="none" xmlns="http://www.w3.org/2000/svg">
<path d="M7.4672 4.94507C8.24792 4.49242 9.23695 4.73974 9.67626 5.49747L11.2665 8.24034C10.8281 7.48276 11.105 6.5023 11.8853 6.04987C12.666 5.59723 13.6551 5.84455 14.0944 6.60228L18.0702 13.4597C17.6329 12.7023 17.9099 11.7228 18.6898 11.2706C19.4705 10.818 20.4595 11.0653 20.8988 11.823L26.5995 21.6556C27.771 23.6762 27.033 26.2927 24.9511 27.4998L18.3542 31.3245C16.2723 32.5316 13.6349 31.872 12.4634 29.8514L3.94549 15.1598C3.50617 14.402 3.78294 13.4208 4.56366 12.9682C5.34384 12.5159 6.33205 12.7625 6.77181 13.519L5.0824 10.6051C4.64308 9.84739 4.91985 8.86619 5.70056 8.41355C6.4727 7.96588 7.4486 8.20288 7.89495 8.94116L7.8947 8.94019L6.84903 7.13664C6.40972 6.37891 6.68649 5.39771 7.4672 4.94507Z" fill="#2B4593"/>
<path d="M14.2541 20.8793C14.105 20.7278 14.0208 20.52 14.0226 20.2998C14.0244 20.0791 14.1126 19.8641 14.2703 19.7039C14.428 19.5437 14.6396 19.454 14.8569 19.4522C15.0737 19.4504 15.2783 19.5359 15.4274 19.6874C15.5765 19.8389 15.6607 20.0467 15.6589 20.267C15.6572 20.4877 15.5689 20.7027 15.4112 20.8629C15.2535 21.0231 15.0419 21.1127 14.8246 21.1146C14.6078 21.1164 14.4033 21.0308 14.2541 20.8793Z" fill="#2B4593" stroke="white" stroke-width="1.14844"/>
<path d="M15.5487 18.8769C15.3996 18.7254 15.3153 18.5176 15.3171 18.2973C15.3189 18.0766 15.4072 17.8616 15.5649 17.7014C15.7226 17.5412 15.9342 17.4516 16.1515 17.4497C16.3683 17.4479 16.5728 17.5335 16.7219 17.685C16.8711 17.8365 16.9553 18.0443 16.9535 18.2645C16.9517 18.4852 16.8635 18.7002 16.7058 18.8604C16.5481 19.0206 16.3364 19.1103 16.1192 19.1121C15.9024 19.1139 15.6978 19.0284 15.5487 18.8769Z" fill="#2B4593" stroke="white" stroke-width="1.14844"/>
<path d="M16.844 16.8754C16.6949 16.7239 16.6106 16.5161 16.6124 16.2959C16.6142 16.0752 16.7025 15.8602 16.8602 15.7C17.0179 15.5398 17.2295 15.4501 17.4467 15.4483C17.6635 15.4465 17.8681 15.532 18.0172 15.6835C18.1664 15.835 18.2506 16.0428 18.2488 16.2631C18.247 16.4838 18.1588 16.6988 18.001 16.859C17.8433 17.0192 17.6317 17.1088 17.4145 17.1106C17.1977 17.1125 16.9931 17.0269 16.844 16.8754Z" fill="#2B4593" stroke="white" stroke-width="1.14844"/>
<path d="M18.1389 14.8734C17.9898 14.722 17.9056 14.5142 17.9073 14.2939C17.9091 14.0732 17.9974 13.8582 18.1551 13.698C18.3128 13.5378 18.5244 13.4481 18.7417 13.4463C18.9585 13.4445 19.163 13.5301 19.3121 13.6816C19.4613 13.8331 19.5455 14.0409 19.5437 14.2611C19.5419 14.4818 19.4537 14.6968 19.296 14.857C19.1383 15.0172 18.9266 15.1069 18.7094 15.1087C18.4926 15.1105 18.288 15.0249 18.1389 14.8734Z" fill="#2B4593" stroke="white" stroke-width="1.14844"/>
<path d="M12.9426 22.8817C12.7935 22.7303 12.7093 22.5225 12.7111 22.3022C12.7128 22.0815 12.8011 21.8665 12.9588 21.7063C13.1165 21.5461 13.3281 21.4564 13.5454 21.4546C13.7622 21.4528 13.9667 21.5384 14.1159 21.6899C14.265 21.8414 14.3492 22.0492 14.3474 22.2694C14.3456 22.4901 14.2574 22.7051 14.0997 22.8653C13.942 23.0255 13.7304 23.1152 13.5131 23.117C13.2963 23.1188 13.0917 23.0332 12.9426 22.8817Z" fill="#2B4593" stroke="white" stroke-width="1.14844"/>
<path d="M11.6949 24.9482C11.5458 24.7967 11.4616 24.5889 11.4634 24.3686C11.4652 24.1479 11.5534 23.9329 11.7111 23.7727C11.8688 23.6125 12.0804 23.5229 12.2977 23.521C12.5145 23.5192 12.7191 23.6048 12.8682 23.7563C13.0173 23.9078 13.1015 24.1156 13.0997 24.3358C13.098 24.5565 13.0097 24.7715 12.852 24.9317C12.6943 25.0919 12.4827 25.1816 12.2654 25.1834C12.0486 25.1852 11.8441 25.0997 11.6949 24.9482Z" fill="#2B4593" stroke="white" stroke-width="1.14844"/>
<path d="M9.63683 23.5912C9.4877 23.4397 9.40348 23.2319 9.40526 23.0117C9.40705 22.791 9.4953 22.576 9.65301 22.4158C9.81071 22.2556 10.0223 22.1659 10.2396 22.1641C10.4564 22.1623 10.6609 22.2479 10.8101 22.3993C10.9592 22.5508 11.0434 22.7586 11.0416 22.9789C11.0398 23.1996 10.9516 23.4146 10.7939 23.5748C10.6362 23.735 10.4246 23.8246 10.2073 23.8265C9.99051 23.8283 9.78596 23.7427 9.63683 23.5912Z" fill="#2B4593" stroke="white" stroke-width="1.14844"/>
<path d="M7.64281 22.3002C7.49368 22.1487 7.40946 21.9409 7.41125 21.7207C7.41304 21.5 7.50128 21.285 7.65899 21.1248C7.81669 20.9646 8.02831 20.8749 8.24557 20.8731C8.46237 20.8713 8.66693 20.9568 8.81605 21.1083C8.96518 21.2598 9.04941 21.4676 9.04762 21.6879C9.04583 21.9086 8.95758 22.1236 8.79988 22.2838C8.64217 22.444 8.43055 22.5336 8.2133 22.5355C7.99649 22.5373 7.79194 22.4517 7.64281 22.3002Z" fill="#2B4593" stroke="white" stroke-width="1.14844"/>
<path d="M5.64855 21.0082C5.49942 20.8567 5.4152 20.6489 5.41698 20.4287C5.41877 20.208 5.50702 19.993 5.66473 19.8328C5.82243 19.6726 6.03405 19.5829 6.2513 19.5811C6.46811 19.5793 6.67266 19.6648 6.82179 19.8163C6.97092 19.9678 7.05514 20.1756 7.05336 20.3959C7.05157 20.6166 6.96332 20.8316 6.80561 20.9918C6.64791 21.152 6.43629 21.2416 6.21904 21.2435C6.00223 21.2453 5.79768 21.1597 5.64855 21.0082Z" fill="#2B4593" stroke="white" stroke-width="1.14844"/>
<rect x="-0.477057" y="0.480319" width="6.54843" height="0.95733" transform="matrix(0.0033531 0.999994 -0.999994 0.00346046 13.2561 26.2306)" fill="#2B4593" stroke="white" stroke-width="0.95733"/>
<rect x="10.0643" y="27.6689" width="4.40349" height="0.936408" fill="#2B4593" stroke="white" stroke-width="0.936408"/>
</svg>
